<?xml version="1.0" standalone="no"?>
<!DOCTYPE svg PUBLIC "-//W3C//DTD SVG 1.1//EN" "http://www.w3.org/Graphics/SVG/1.1/DTD/svg11.dtd" >
<svg xmlns="http://www.w3.org/2000/svg">
<metadata>Generated by IcoMoon</metadata>
<defs>
<font id="icomoon" horiz-adv-x="1024">
<font-face units-per-em="1024" ascent="960" descent="-64" />
<missing-glyph horiz-adv-x="1024" />
<glyph unicode="&#x20;" horiz-adv-x="512" d="" />
<glyph unicode="&#xe900;" glyph-name="resize2, shrink, collapse, contract" d="M877.024 707.776l-85.28 85.28-157.6-157.6-122.080 122.080-0.128-309.76 311.136 0.544-103.616 101.856 157.568 157.6zM274.464 307.744l-142.496-142.496 85.28-85.312 142.496 142.56 119.424-119.424 0.128 311.488-313.088 1.44 108.256-108.256z" />
<glyph unicode="&#xe901;" glyph-name="resize3, responsive, maximize2, enlarge2" d="M831.68 766.656l-0.128-311.52-119.424 119.456-142.528-142.56-85.28 85.28 142.528 142.528-108.288 108.256 313.12-1.44zM367.808 230.24l103.616-101.824-311.104-0.544 0.128 309.76 122.080-122.080 157.6 157.568 85.28-85.28-157.6-157.6z" />
<glyph unicode="&#xe902;" glyph-name="resize, maximize, enlarge" d="M767.264 33.12v61.824h127.616v127.616h65.824v-189.44h-193.44zM894.88 769.056h-127.616v61.824h193.44v-189.44h-65.824v127.616zM97.12 641.44h-65.792v189.44h193.44v-61.824h-127.648v-127.616zM158.944 703.264h674.112v-542.496h-674.112v542.496zM224.736 222.56h542.496v418.88h-542.496v-418.88zM288.576 575.616h416.864v-287.264h-416.864v287.264zM97.12 94.944h127.616v-61.824h-193.408v189.44h65.824v-127.616z" />
<glyph unicode="&#xe903;" glyph-name="albania-lek-currency-symbol" d="M304.798 241.989v-54.285c0-7.161-5.801-12.95-12.95-12.95h-278.898c-7.148 0-12.95 5.789-12.95 12.95v501.271c0 7.148 5.801 12.95 12.95 12.95h64.71c7.148 0 12.95-5.801 12.95-12.95v-434.049h201.239c7.161 0.013 12.95-5.801 12.95-12.937zM648.419 386.262c0-12.173-1.191-22.183-1.955-28.826l-0.337-3.095c-0.738-6.566-6.268-11.525-12.872-11.525h-239.285c7.809-89.081 78.657-99.052 109.84-99.052 46.749 0 73.114 8.443 94.611 17.56 3.509 1.489 7.498 1.347 10.904-0.363 3.419-1.722 5.892-4.856 6.747-8.547l11.15-46.865c1.424-6.048-1.619-12.25-7.278-14.814-23.711-10.684-64.632-23.452-125.069-23.452-115.395 0-189.96 76.313-189.96 194.427 0 121.922 74.746 207.066 181.788 207.066 111.717 0.026 161.716-91.645 161.716-182.514zM396.456 415.593h162.403c-1.347 16.524-6.462 42.475-24.203 60.54-12.976 13.209-30.859 19.917-53.146 19.917-52.848-0.013-77.064-45.467-85.054-80.457zM1021.41 195.448l-151.9 203.259 131.647 140.077c3.522 3.768 4.507 9.259 2.435 14.012-2.059 4.74-6.721 7.809-11.888 7.809h-78.838c-3.794 0-7.407-1.671-9.881-4.558l-105.748-124.369c-3.134-3.82-6.747-8.223-10.515-12.898v296.976c0 7.148-5.789 12.95-12.95 12.95h-64.671c-7.161 0-12.95-5.801-12.95-12.95v-528.051c0-7.161 5.789-12.95 12.95-12.95h64.697c7.161 0 12.95 5.789 12.95 12.95v130.378l19.399 21.548 114.825-159.489c2.435-3.393 6.345-5.387 10.515-5.387h79.576c4.895 0 9.389 2.758 11.59 7.148 2.176 4.364 1.696 9.609-1.243 13.545z" />
<glyph unicode="&#xe904;" glyph-name="aruba-guilder-currency-symbol" d="M693.207 960c-7.628 0-15.656-0.425-23.877-1.25-66.566-6.765-125.942-54.247-150.475-131.933-10.128-32.059-18.426-66.179-24.753-99.746l-12.615-70.071h-119.318c-15.772 0-28.593-12.821-28.593-28.593s12.821-28.593 28.593-28.593l111.51-0.129-29.34-240.441c-12.628-107.541-26.17-203.344-41.414-292.871-8.981-52.894-35.216-80.637-80.057-84.464 8.298 11.545 12.872 25.925 12.872 41.207 0 36.363-26.132 65.934-58.255 65.934-32.11 0-58.255-29.572-58.242-66.398 3.273-44.248 41.066-68.408 52.559-74.761 14.135-7.783 31.337-11.906 49.725-11.906 50.498 0 99.668 28.683 125.297 73.060 39.7 68.808 57.391 140.489 72.132 208.047 19.534 89.54 32.51 182.186 45.073 271.765 5.18 36.904 10.386 73.885 16.029 110.866l116.342 0.090c15.785 0 28.593 12.821 28.593 28.593s-12.808 28.593-28.593 28.593h-111.394c20.127 131.006 34.404 193.023 41.169 218.523 5.141 19.328 20.9 42.354 66.824 42.354 3.337 0 6.791-0.129 10.398-0.361-5.682-12.331-11.455-25.848-11.455-35.19 0-31.092 25.307-56.373 56.373-56.373 31.105 0 56.399 25.294 56.399 56.373 0.039 20.153-20.462 77.673-111.51 77.673z" />
<glyph unicode="&#xe905;" glyph-name="azerbaijan-currency-symbol" d="M344.183 646.312h-61.424c-4.926 0-9.383-3.108-11.072-7.718l-66.491-180.578c-12.046-34.154-21.37-62.444-28.783-87.345-7.143 25.135-16.080 53.425-27.539 87.345l-63.653 180.425c-1.654 4.715-6.122 7.882-11.119 7.882h-61.436c-6.486 0-11.788-5.278-11.811-11.776l-0.856-373.048c0-3.179 1.22-6.146 3.448-8.339 2.217-2.24 5.196-3.483 8.363-3.483l38.084-0.012v5.653l0.141-5.642c6.51 0 11.799 5.29 11.799 11.799 0 0.798-0.070 1.607-0.246 2.381l-0.035 239.433c6.052-19.622 13.019-41.203 21.288-65.74l60.65-177.669c1.642-4.762 6.122-7.987 11.166-7.987h36.524c4.961 0 9.43 3.143 11.084 7.776l65.564 180.976c9.547 26.12 18.074 50.481 25.78 73.669l-0.082-252.827c0-3.155 1.22-6.111 3.46-8.339 2.217-2.217 5.184-3.46 8.339-3.46h39.092c3.167 0 6.111 1.22 8.339 3.46 2.24 2.228 3.472 5.184 3.472 8.363l-0.246 373.013c0.012 6.498-5.29 11.788-11.799 11.788zM1012.189 642.054h-48.112c-6.51 0-11.799-5.29-11.799-11.811v-142.47h-154.727v142.47c0 6.521-5.301 11.811-11.811 11.811h-47.643c-6.51 0-11.811-5.29-11.811-11.811v-368.732c0-6.521 5.301-11.811 11.811-11.811h47.643c6.51 0 11.811 5.29 11.811 11.811v161.084h154.727v-161.072c0-6.51 5.313-11.799 11.823-11.799h48.1c6.521 0 11.811 5.29 11.811 11.799v368.72c-0.012 6.521-5.313 11.811-11.823 11.811zM528.526 640.975c-40.805 0-78.443-10.239-111.917-30.46-4.738-2.862-6.861-8.738-5.055-13.946l10.931-31.691c1.161-3.343 3.706-5.97 7.014-7.19 3.237-1.22 7.002-0.915 10.016 0.809 24.771 14.227 55.911 22.39 85.398 22.39 48.511 0 71.1-24.936 71.1-78.466v-1.865c-137.028-0.551-206.498-47.912-206.498-140.805 0-50.763 28.97-110.028 110.627-110.028 42.505 0 81.75 16.995 107.483 46.071l0.059-27.375c0.715-5.935 5.747-10.439 11.729-10.439h38.025c3.448 0 6.709 1.501 8.914 4.093 2.275 2.616 3.284 6.099 2.815 8.621l0.141 215.964c-0.012 102.393-47.361 154.317-140.782 154.317zM508.212 309.811c-35.492 0-56.686 21.476-56.686 57.436 0 50.633 46.294 76.331 137.615 76.331 1.689 0 3.343-0.012 5.020-0.023l0.023-57.53c0-5.724-1.22-12.55-3.413-19.153-8.996-26.32-36.031-57.061-82.559-57.061z" />
<glyph unicode="&#xe906;" glyph-name="belarus-ruble-currency-symbol" d="M417.581 960c-95.484 0-169.304-34.459-224.963-105.2l-0.217 74.189c-0.033 8.296-6.82 15.070-15.116 15.086l-106.321 0.149c-4.026 0-7.838-1.564-10.702-4.436-2.823-2.818-4.436-6.725-4.436-10.702l-0.312-977.957c0-3.977 1.613-7.876 4.436-10.685 2.864-2.859 6.659-4.447 10.702-4.447h110.32c8.362 0 15.148 6.803 15.148 15.129v335.245c47.305-52.52 118.967-82.222 200.090-82.222 161.459 0 335.272 121.408 335.272 387.963-0.003 213.17-132.028 367.887-313.901 367.887zM397.935 333.020c-114.219 0-207.167 111.618-207.167 248.839s92.949 248.855 207.167 248.855c114.265 0 207.2-111.618 207.2-248.855-0.003-137.221-92.935-248.839-207.2-248.839zM863.030 416.412c-61.139 0-105.488-41.751-105.488-99.277 0-59.261 43.374-100.658 105.488-100.658 62.101 0 105.458 40.819 105.458 99.247 0 58.327-44.338 100.688-105.458 100.688z" />
<glyph unicode="&#xe907;" glyph-name="belize-dollar-symbol" d="M226.796 466.752c41.907 21.414 67.231 59.492 67.231 102.818 0 37.802-14.56 68.591-41.855 88.873-30.648 24.798-71.881 35.844-133.716 35.844-40.262 0-83.312-3.803-112.367-9.916-3.553-0.75-6.089-3.877-6.089-7.513v-461.885c0-3.829 2.851-7.078 6.628-7.606 15.286-2.119 47.944-5.663 95.099-5.663 78.944 0 133.74 15.029 167.678 46.062 27.873 27.077 42.022 60.576 42.022 99.55 0.011 64.275-42.313 102.859-84.631 119.436zM75.971 629.377c11.811 1.906 27.251 2.884 45.96 2.884 63.319 0 95.438-23.205 95.438-68.963 0-43.152-36.924-71.038-94.045-71.038h-47.353v137.117zM119.156 264.439c-19.113 0-33.095 0.567-43.185 1.749v164.735h42.485c34.116 0 113.549-8.080 113.549-82.888 0-72.742-70.723-83.597-112.849-83.597zM673.63 264.413v-50.841c0-4.24-3.429-7.682-7.682-7.682h-342.762c-4.233 0-7.682 3.442-7.682 7.682v35.531c0 1.541 0.463 3.055 1.343 4.327l253.765 371.163h-225.134c-4.233 0-7.682 3.429-7.682 7.667v50.86c0 4.253 3.449 7.669 7.682 7.669h316.962c4.264 0 7.68-3.429 7.68-7.669v-36.915c0-1.554-0.45-3.051-1.334-4.329l-252.372-369.781h249.532c4.253 0 7.684-3.429 7.684-7.682zM1015.446 404.911c-5.626 15.182-14.091 28.053-25.252 38.278-11.318 10.37-25.717 19.3-42.75 26.575-15.169 6.467-33.036 12.852-52.907 19.030v146.381c33.382-8.123 51.649-30.037 54.294-65.566h0.104l0.256-3.988c0.589-16.544 14.052-29.485 30.648-29.485 17.726 0 31.239 13.167 31.419 30.635l-0.63 5.55c-4.481 72.67-42.568 112.919-116.079 122.509v78.944c0 16.492-13.41 29.896-29.879 29.896-16.466 0-29.889-13.417-29.889-29.896v-78.129c-13.128-1.593-25.524-4.418-36.902-8.799-17.676-6.828-32.96-16.327-45.408-28.227-12.409-11.874-22.029-26.069-28.607-42.209-6.574-16.177-9.914-34.36-9.914-53.994 0-21.784 2.517-40.095 7.473-54.418 4.909-14.123 12.691-26.267 23.122-36.024 10.585-9.916 24.174-18.483 40.386-25.445 14.052-6.061 30.878-12.022 49.839-17.8v-166.37c-42.852 9.299-65.457 37.674-67.205 84.855l-0.026 4.007c0 16.879-13.821 30.596-30.804 30.596-18.007 0-31.213-12.885-31.404-30.648 4.431-90.622 46.897-139.855 129.437-150.184v-78.764c0-16.494 13.41-29.892 29.876-29.892 16.468 0 29.892 13.424 29.892 29.892v78.379c14.245 1.823 27.603 5.074 39.703 10.083 18.882 7.847 35.17 18.587 48.479 31.945 13.267 13.334 23.572 29.183 30.637 47.116 7.050 17.92 10.646 37.598 10.646 58.419-0.041 22.299-2.892 41.385-8.556 56.747zM834.756 507.433c-3.16 1.052-6.178 2.067-8.903 2.999-15.001 5.196-25.869 10.366-33.19 15.812-7.667 5.683-12.459 12.074-14.269 19.017-1.619 6.313-2.453 14.619-2.453 24.624 0 11.496 2.323 21.773 6.911 30.57 4.624 8.786 10.996 16.094 19.037 21.74 7.86 5.537 17.109 9.749 27.464 12.511 1.771 0.469 3.57 0.856 5.394 1.247v-128.52h0.011zM939.006 280.789c-10.727-10.264-25.676-16.866-44.482-19.895v148.23c3.032-1.078 6.076-2.132 8.799-3.11 15.284-5.522 27.334-11.24 35.85-16.979 8.914-6.037 15.040-13.052 18.187-20.834 3.058-7.515 4.611-16.777 4.611-27.54-0.013-25.176-7.734-45.319-22.966-59.872z" />
<glyph unicode="&#xe908;" glyph-name="bolivia-boliviano-currency-symbol" d="M948.496 508.107c-40.218 40.484-92.521 61.88-151.254 61.88-68.155 0-125.774-25.086-164.218-71.073v285.864c0 6.502-5.281 11.777-11.764 11.777h-91.684c-6.483 0-11.771-5.273-11.771-11.777v-616.452c0-45.589-2.166-97.573-4.193-131.017-0.191-3.216 0.962-6.406 3.192-8.788 2.215-2.357 5.343-3.7 8.572-3.7h80.091c6.282 0 11.436 4.902 11.751 11.196l2.633 52.73c38.219-50.122 93.203-75.513 163.687-75.513 115.82 0 240.453 89.087 240.453 284.613 0.587 85.985-26.236 160.662-75.495 210.259zM779.5 106.172c-87.44 0-158.558 84.012-158.558 187.295 0 103.257 71.116 187.28 158.558 187.28s158.56-84.022 158.56-187.28c0-103.283-71.142-187.295-158.56-187.295zM395.341 441.325c-15.696 14.38-35.648 26.789-59.316 36.895-21.060 8.985-45.829 17.844-73.424 26.41v203.161c46.324-11.276 71.656-41.701 75.341-91h0.12l0.336-5.528c0.855-22.965 19.539-40.936 42.568-40.936 24.587 0 43.342 18.279 43.601 42.519l-0.868 7.694c-6.2 100.858-59.095 156.722-161.099 170.026v109.569c0 22.877-18.622 41.497-41.493 41.497-22.877 0-41.499-18.62-41.499-41.497v-108.444c-18.215-2.19-35.427-6.149-51.179-12.214-24.548-9.465-45.752-22.656-63.026-39.175-17.23-16.482-30.575-36.192-39.693-58.6-9.138-22.457-13.772-47.684-13.772-74.941 0-30.221 3.501-55.656 10.391-75.519 6.781-19.61 17.57-36.439 32.083-49.99 14.689-13.772 33.546-25.649 56.055-35.318 19.49-8.394 42.834-16.69 69.143-24.692v-230.906c-59.455 12.893-90.822 52.301-93.273 117.747l-0.013 5.596c0 23.402-19.179 42.446-42.74 42.446-25.002 0-43.329-17.881-43.588-42.525 6.162-125.772 65.096-194.129 179.625-208.428v-109.322c0-22.871 18.622-41.484 41.499-41.484 22.871 0 41.493 18.614 41.493 41.484v108.778c19.762 2.532 38.294 7.027 55.061 14.005 26.206 10.879 48.837 25.784 67.275 44.31 18.425 18.526 32.728 40.524 42.504 65.383 9.808 24.91 14.772 52.198 14.772 81.109 0 30.975-3.983 57.48-11.828 78.78-7.76 21.045-19.55 38.913-35.057 53.109zM179.612 530.489c-4.356 1.457-8.548 2.869-12.334 4.178-20.812 7.192-35.875 14.367-46.069 21.926-10.65 7.884-17.298 16.754-19.8 26.397-2.26 8.769-3.413 20.274-3.413 34.172 0 15.948 3.242 30.215 9.611 42.416 6.378 12.201 15.261 22.346 26.41 30.176 10.935 7.7 23.77 13.538 38.123 17.362 2.451 0.658 4.97 1.176 7.471 1.735v-178.363zM324.332 215.953c-14.899-14.245-35.661-23.417-61.715-27.62v205.73c4.203-1.48 8.416-2.965 12.188-4.33 21.229-7.649 37.973-15.601 49.773-23.58 12.34-8.358 20.825-18.082 25.219-28.897 4.242-10.434 6.382-23.301 6.382-38.245 0.013-34.911-10.712-62.861-31.847-83.058z" />
<glyph unicode="&#xe909;" glyph-name="bosnia-herzegovina-convertible-marka-currency-symbol" d="M188.040 441.15l226.58 283.381c3.266 4.079 3.784 9.679 1.356 14.218-2.334 4.409-6.92 7.121-11.978 7.121h-96.897c-4.162 0-8.158-1.922-10.669-5.14l-191.388-242.92v234.856c0 7.286-6.060 13.204-13.487 13.204h-78.057c-7.439 0-13.499-5.918-13.499-13.204v-569.343c0-7.286 6.060-13.204 13.499-13.204h78.057c7.427 0 13.487 5.918 13.487 13.204v204.145l11.377 0.2 204.84-213.399c2.547-2.641 6.119-4.15 9.809-4.15h92.417c5.14 0 9.915 2.924 12.19 7.533 2.323 4.775 1.509 10.457-2.122 14.489l-245.513 269.010zM1023.635 721.949c0 9.561-7.793 17.33-17.354 17.33h-90.212c-7.227 0-13.77-4.562-16.269-11.33l-97.651-265.225c-17.696-50.152-31.395-91.721-42.277-128.28-10.516 36.889-23.614 78.435-40.449 128.28l-93.49 264.989c-2.417 6.932-9.007 11.565-16.34 11.565h-90.224c-9.538 0-17.307-7.746-17.354-17.295l-1.261-547.922c0-4.669 1.804-9.031 5.069-12.237 3.266-3.301 7.64-5.105 12.285-5.105l55.941-0.024v8.311l0.212-8.288c9.561 0 17.319 7.757 17.319 17.33 0 1.179-0.094 2.334-0.342 3.501l-0.071 351.677c8.889-28.813 19.134-60.515 31.289-96.578l89.069-260.957c2.417-7.003 9.007-11.719 16.411-11.719h53.642c7.286 0 13.864 4.61 16.281 11.447l96.295 265.767c14.029 38.363 26.55 74.155 37.879 108.215l-0.118-371.329c0-4.645 1.792-8.995 5.069-12.249 3.266-3.277 7.616-5.081 12.249-5.081h57.426c4.645 0 8.983 1.792 12.249 5.081 3.289 3.277 5.105 7.616 5.105 12.261l-0.377 547.863z" />
<glyph unicode="&#xe90a;" glyph-name="botswana-pula-currency-sign" d="M739.572 872.115c-63.34 56.986-159.701 85.878-286.285 85.878l-242.794 2.007c-4.313-0.348-9.122-1.772-12.417-5.058-3.303-3.286-5.17-7.723-5.17-12.384v-989.125c0-9.645 7.81-17.434 17.434-17.434h126.491c9.615 0 17.417 7.819 17.417 17.434v371.281c26.986-4.209 56.225-4.905 84.35-4.905 132.852 0 243.733 40.158 311.978 112.855 53.432 55.001 80.513 129.528 80.513 221.502 0.003 89.487-32.597 166.983-91.517 217.947zM441.489 456.425c-35.757 0-64.482 2.185-87.256 6.646v359.979l101.792-0.211c79.818 0 213.749-22.678 213.749-174.495-0.003-121.958-83.219-191.92-228.285-191.92z" />
<glyph unicode="&#xe90b;" glyph-name="brazil-real-symbol" d="M372.446 430.048c67.965 57.019 93.378 109.852 93.378 192.639 0 56.659-20.516 105.936-57.624 138.69-45.115 40.809-108.927 59.015-206.973 59.015l-171.692-0.561c-5.263-0.014-9.518-4.283-9.518-9.546v-697.596c0-5.275 4.269-9.539 9.56-9.539h89.441c5.277 0 9.546 4.264 9.546 9.539v290.687h144.438l106.435-293.949c1.37-3.782 4.955-6.305 8.978-6.305h92.546c3.144 0 6.063 1.535 7.86 4.111 1.769 2.562 2.173 5.838 1.097 8.772l-117.472 314.043zM210.518 490.336h-81.973v241.988l78.854 0.090c68.376-0.761 149.859-22.19 149.859-120.008 0.014-74.156-57.58-122.070-146.741-122.070zM991.717 385.997c-8.060 21.847-20.298 40.378-36.376 55.104-16.282 14.918-36.976 27.787-61.508 38.272-21.861 9.321-47.559 18.496-76.176 27.395v210.697c48.052-11.691 74.339-43.253 78.161-94.394h0.125l0.329-5.729c0.89-23.801 20.256-42.453 44.159-42.453 25.506 0 44.952 18.96 45.226 44.097l-0.904 7.983c-6.416 104.61-61.29 162.556-167.068 176.352v113.651c0 23.732-19.324 43.028-43.033 43.028-23.736 0-43.046-19.296-43.046-43.028v-112.487c-18.888-2.289-36.716-6.386-53.054-12.683-25.464-9.827-47.487-23.477-65.373-40.628-17.87-17.11-31.741-37.547-41.185-60.782-9.47-23.312-14.295-49.455-14.295-77.722 0-31.351 3.659-57.721 10.784-78.339 7.033-20.333 18.241-37.792 33.278-51.853 15.241-14.274 34.799-26.595 58.153-36.635 20.214-8.709 44.431-17.288 71.692-25.608v-239.486c-61.661 13.351-94.183 54.232-96.747 122.114l-0.028 5.799c0 24.272-19.871 44.032-44.322 44.032-25.93 0-44.941-18.556-45.198-44.104 6.386-130.447 67.511-201.357 186.281-216.185v-113.37c0-23.736 19.31-43.037 43.035-43.037 23.736 0 43.035 19.298 43.035 43.037v112.848c20.53 2.618 39.733 7.292 57.109 14.501 27.205 11.264 50.67 26.753 69.802 45.98 19.106 19.201 33.936 42.005 44.078 67.801 10.195 25.835 15.336 54.137 15.336 84.122-0.005 32.128-4.13 59.62-12.27 81.711zM718.777 537.915c-21.559 7.462-37.182 14.898-47.765 22.744-11.046 8.183-17.926 17.392-20.53 27.384-2.33 9.094-3.534 21.037-3.534 35.434 0 16.551 3.344 31.337 9.977 44.013 6.606 12.644 15.816 23.168 27.37 31.281 11.362 7.983 24.657 14.049 39.527 18.002 2.551 0.691 5.168 1.24 7.758 1.795v-184.992c-4.54 1.528-8.843 2.973-12.804 4.338zM881.691 207.349c-15.459-14.786-37.004-24.272-64.031-28.657v213.391c4.359-1.535 8.744-3.070 12.651-4.484 22.023-7.935 39.374-16.184 51.614-24.464 12.801-8.66 21.626-18.749 26.176-29.944 4.399-10.842 6.62-24.163 6.62-39.677 0-36.234-11.102-65.206-33.030-86.165z" />
<glyph unicode="&#xe90c;" glyph-name="bulgaria-lev" d="M951.598 466.548l-6.876 3.057 6.716 3.406c34.037 17.287 74.255 51.137 72.51 114.133-3.531 126.141-125.851 143.136-245.031 143.136l-166.329-0.022c-7.062 0-12.817-5.749-12.817-12.801v-535.702c0-3.443 1.341-6.669 3.793-9.111 2.41-2.397 5.624-3.717 9.015-3.717l137.534-0.415c7.16-0.207 14.071-0.315 21.067-0.315 98.32 0 169.567 21.613 211.78 64.194 26.768 27.028 40.151 62.363 39.759 105.011-0.634 65.867-23.894 108.089-71.12 129.145zM831.471 513.409l-4.696-0.365c-2.452-0.212-3.717-0.181-6.050-0.081h-107.451v133.382l111.583-0.225c37.046 0 76.641-16.87 76.641-64.342 0.382-20.949-5.11-37.363-16.304-48.779-16.428-16.708-36.24-18.238-53.723-19.59zM901.486 333.865c0.382-20.949-5.11-37.363-16.315-48.785-17.93-18.266-46.496-20.23-57.94-20.23-2.441 0-4.11 0.089-6.159 0.175l-107.812 0.024v133.675l110.809-0.513c37.428 0 77.417-16.872 77.417-64.347zM485.695 728.555h-366.079c-7.084 0-12.845-5.771-12.845-12.861v-212.447c0-122.8-7.51-186.765-50.457-218.317-9.788-8.176-27.297-15.281-45.678-18.53-6.784-1.178-11.407-7.477-10.527-14.322l9.802-75.203c0.845-6.365 6.326-11.161 12.742-11.161 47.558 0 80.784 10.289 110.669 34.079 74.6 48.609 89.58 152.162 89.58 303.451v124.417h155.153v-449.065c0-7.084 5.771-12.85 12.856-12.85h94.789c7.084 0 12.856 5.766 12.856 12.85v537.098c-0.015 7.101-5.775 12.861-12.86 12.861z" />
<glyph unicode="&#xe90d;" glyph-name="cambodia-riel-currency-symbol" d="M763.095 437.040c-31.676 18.54-63.78 4.476-84.139-22.057-7.698-10.048-17.386-20.163-28.192-29.836-2.521 13.357-5.499 26.619-9.781 39.644-28.714 87.841-104.419 124.447-190.155 135.634-28.307 3.704-56.947 6.233-81.55 21.75-14.339 9.034-16.073 40.181-15.851 60.543 0.587 60.635 36.206 138.899 85.448 175.57 71.484 53.285 184.818-5.357 258.643-25.684 76.575-21.102 109.024 97.537 32.689 118.578-91.268 25.134-178.075 59.243-274.19 45.773-86.701-12.163-150.508-90.397-186.579-164.256-33.712-68.929-52.044-152.495-28.366-227.449 26.96-85.288 103.061-114.235 184.45-124.569 24.131-3.056 55.854-4.163 75.521-20.014 24.684-19.881 29.888-52.771 32.45-82.591 6.298-73.121-0.199-153.964-10.059-226.537-1.569-11.648-3.838-23.165-6.431-34.624-2.641 2.682-5.291 5.361-7.901 8.070-19.659 20.587-37.599 42.883-55.579 64.94-38.969 47.795-77.414 95.936-119.745 140.849-54.459 57.8-141.273-29.314-86.936-86.956 45.633-48.407 86.78-100.593 128.865-152.030 30.348-37.053 62.579-78.563 105.142-102.325 49.976-27.912 104.975-10.98 133.849 37.36 35.599 59.602 33.597 141.7 38.159 208.284 0.989 14.355 2.002 28.888 2.883 43.47 0.867 0.44 1.788 0.682 2.614 1.163 50.595 28.82 91.584 67.22 126.81 113.146 20.443 26.684 4.111 68.807-22.068 84.153z" />
<glyph unicode="&#xe90e;" glyph-name="costa-rica-colon-currency-symbol" d="M804.685 362.39c-12.045 13.077-26.47 19.634-43.263 19.634-19.671 0-33.926-6.448-42.79-19.379-8.876-12.919-16.344-29.639-22.366-50.172-14.267-43.53-35.431-76.545-63.492-99.021-25.475-20.399-56.158-31.449-91.942-33.331l126.669 480.752c8.536-12.446 16.55-26.41 24.018-42.049 11.086-23.362 21.164-39.827 30.198-49.383s22.573-14.328 40.665-14.328c16.161 0 29.967 6.897 41.381 20.703 11.39 13.806 17.109 29.737 17.109 47.792 0 32.906-11.717 67.864-35.176 104.861-19.391 30.562-45.947 57.020-79.411 79.496l26.968 102.287c4.396 16.72-5.573 33.865-22.318 38.261-16.72 4.383-33.865-5.585-38.248-22.305l-23.143-87.826c-18.675 7.407-38.358 12.786-58.951 16.259l17.4 66.054c4.396 16.72-5.573 33.865-22.305 38.261-16.72 4.396-33.853-5.585-38.261-22.305l-20.448-77.456c-43.797-0.838-85.191-9.932-124.107-27.442-40.895-18.408-76.557-45.218-106.998-80.443s-53.827-77.602-70.146-127.155c-16.344-49.553-24.503-105.651-24.503-168.305 0-38.588 3.254-75.052 9.75-109.378 6.496-34.339 16.246-66.625 29.251-96.884 12.992-30.271 28.68-57.615 47.076-82.058 14.024-18.311 29.057-33.999 44.915-47.464l-35.419-134.343c-4.408-16.72 5.573-33.865 22.305-38.261 2.671-0.704 5.355-1.032 8.002-1.032 13.879 0 26.567 9.301 30.271 23.362l30.162 114.49c15.615-7.443 32.056-13.599 49.541-18.129 2.744-0.716 5.646-1.226 8.451-1.858l-23.447-88.991c-4.408-16.72 5.573-33.853 22.305-38.248 2.671-0.716 5.355-1.032 8.002-1.032 13.879 0 26.567 9.289 30.271 23.35l25.305 96.058c9.592-0.583 19.379-0.947 29.482-0.947 48.497 0 90.995 8.682 127.446 26.021s66.431 39.9 89.878 67.694 40.677 56.098 51.605 84.948c10.928 28.838 16.416 55.66 16.416 80.443-0.012 19.416-6.059 35.698-18.104 48.8zM369.783 296.87c-15.214 40.155-22.828 90.521-22.828 151.039 0 90.594 17.194 160.497 51.593 209.71 25.547 36.524 56.183 60.906 94.018 71.057l-117.319-445.223c-1.87 4.311-3.703 8.755-5.464 13.417zM431.854 209.458c-3.266 2.307-6.375 4.772-9.398 7.298l135.897 515.746c21.674-2.768 41.029-9.41 57.98-20.035l-138.459-525.448c-16.562 4.954-31.91 12.422-46.019 22.439z" />
<glyph unicode="&#xe90f;" glyph-name="croatia-kuna-currency-symbol" d="M1024 384.079v-354.214c0-4.107-3.316-7.437-7.423-7.437h-93.019c-4.094 0-7.409 3.329-7.409 7.437v341.961c0 111.372-42.45 167.863-126.136 167.863-61.758 0-114.278-41.222-133.845-105.068-4.517-12.444-7.041-29.842-7.041-48.058v-356.684c0-4.107-3.316-7.409-7.409-7.409h-115.274c-4.094 0-7.423 3.302-7.423 7.409l-0.45 593.209c0 1.979 0.805 3.862 2.17 5.253 1.405 1.405 3.261 2.17 5.253 2.17h97.836c1.992 0 3.862-0.791 5.267-2.183 1.405-1.405 2.156-3.288 2.142-5.281l-0.409-74.148c26.622 42.232 73.343 87.684 168.75 87.684 52.657-0.027 224.422-18.244 224.422-252.503zM192.342 319.688l231.749 289.85c3.329 4.175 3.862 9.906 1.392 14.532-2.402 4.517-7.082 7.3-12.24 7.3h-99.132c-4.257 0-8.324-1.979-10.902-5.253l-195.767-248.478v482.847c0 7.45-6.181 13.495-13.795 13.495h-79.838c-7.614-0.014-13.809-6.058-13.809-13.495v-824.945c0-7.464 6.195-13.495 13.809-13.495h79.838c7.614 0 13.795 6.031 13.795 13.495v208.784l11.653 0.205 209.521-218.268c2.579-2.674 6.249-4.23 10.016-4.23h94.534c5.253 0 10.138 2.988 12.458 7.669 2.388 4.885 1.556 10.684-2.17 14.819l-251.112 275.168z" />
<glyph unicode="&#xe910;" glyph-name="cuba-peso-currency-symbol" d="M940.111 593.843h-105.319c3.953 22.569 5.927 46.724 5.927 72.473 0 10.165-0.42 19.901-1.036 29.434h100.426c16.894 0 30.577 13.696 30.577 30.59 0 16.882-13.683 30.577-30.577 30.577h-109.368c-4.62 18.808-10.768 36.085-18.624 51.583-19.042 37.65-44.384 67.774-76.047 90.368-31.689 22.588-68.244 38.419-109.663 47.516-41.396 9.078-84.248 13.616-128.54 13.616 0 0-145.058 0-221.503 0-76.449 0-70.467-95.56-70.467-95.56v-107.523h-122.006c-16.869 0-30.577-13.696-30.577-30.577 0-16.894 13.708-30.59 30.577-30.59h122.009v-101.922h-122.009c-16.869 0-30.577-13.696-30.577-30.584 0-16.894 13.708-30.577 30.577-30.577h122.009v-446.622c0-0.518-0.148-0.988-0.148-1.481v-82.817c0-36.333 29.434-65.751 65.743-65.751s65.724 29.418 65.724 65.751v22.92h0.253v330.031h125.17c125.312 0 219.697 26.133 283.027 78.421 32.207 26.57 56.128 59.803 71.961 99.561h122.468c16.894 0 30.579 13.683 30.579 30.584-0.002 16.882-13.685 30.579-30.565 30.579zM337.471 841.067h136.463c31.436 0 61.138-2.656 89.010-7.965 27.934-5.322 52.166-14.732 72.803-28.244 18.338-12.035 32.936-28.168 44.283-47.923h-342.558v84.131zM337.471 695.762h362.121c1.346-10.355 2.271-21.117 2.271-32.765 0-25.569-3.236-48.533-9.285-69.157h-355.096v101.922h-0.010zM647.672 523.474c-18.796-15.511-43.297-27.349-73.379-35.556-30.134-8.201-67.139-12.294-110.973-12.294h-125.836v57.055h319.996c-3.138-3.161-6.301-6.322-9.807-9.206z" />
<glyph unicode="&#xe911;" glyph-name="czech-republic-koruna-currency-symbol" d="M678.65 860.524c-0.979 1.469-1.094 3.34-0.259 4.895s2.448 2.52 4.204 2.52h79.146c1.627 0 3.168-0.864 4.017-2.26l66.85-107.582 66.821 107.582c0.878 1.397 2.39 2.26 4.046 2.26h77.951c1.742 0 3.34-0.965 4.19-2.505s0.763-3.412-0.23-4.881l-111.023-168.889c-0.893-1.339-2.39-2.145-3.959-2.145h-75.604c-1.555 0-3.067 0.792-3.945 2.117l-112.204 168.889zM1023.77 63.725l-23.613 80.312c-0.403 1.411-1.44 2.534-2.764 3.067-1.382 0.562-2.88 0.446-4.161-0.274-21.208-12.123-58.888-26.55-118.092-26.55-136.234 0-197.209 106.171-197.209 211.391 0 125.018 77.836 209.001 193.667 209.001 57.29 0 94.912-14.412 125.666-27.932 1.267-0.576 2.764-0.547 4.046 0.101 1.281 0.634 2.16 1.814 2.505 3.196l17.71 77.951c0.446 2.117-0.533 4.291-2.476 5.284-29.689 15.507-91.096 33.605-166.369 33.605-173.093 0-289.429-119.143-289.429-296.498 0-181.516 128.229-308.319 311.861-308.319 63.596 0 118.496 16.198 146.226 30.020 2.073 1.051 3.11 3.427 2.433 5.644zM239.957 444.681l320.816 401.258c2.174 2.707 2.534 6.364 0.907 9.344-1.569 3.052-4.751 4.91-8.264 4.91h-135.024c-2.822 0-5.673-1.353-7.372-3.513l-283.713-360.123v354.767c0 4.895-4.132 8.869-9.258 8.869h-108.762c-5.126 0-9.287-3.974-9.287-8.869v-793.33c0-4.924 4.147-8.884 9.287-8.884h108.762c5.111 0 9.258 3.959 9.258 8.884v293.777l29.415 0.504 288.291-300.313c1.742-1.8 4.219-2.851 6.781-2.851h128.776c3.556 0 6.897 2.030 8.466 5.183 1.497 3.139 0.936 6.825-1.497 9.546l-347.582 380.841z" />
<glyph unicode="&#xe912;" glyph-name="denmark-krone-currency-symbol" d="M556.004-36.955c4.477-4.939 5.466-11.915 2.625-17.797-2.81-5.636-8.692-9.233-14.973-9.233h-113.635c-4.508 0-8.917 1.867-12.032 5.080l-251.865 262.328-13.994-0.232v-250.966c0-8.956-7.425-16.227-16.579-16.227h-95.953c-9.139 0-16.587 7.271-16.587 16.227v991.552c0 8.945 7.449 16.224 16.587 16.224h95.951c9.154 0 16.579-7.279 16.579-16.224v-580.343l235.338 298.675c3.064 3.939 7.982 6.307 13.090 6.307h119.138c6.237 0 11.823-3.335 14.728-8.768 2.996-5.581 2.332-12.474-1.666-17.483l-278.539-348.385 301.789-330.735zM994.644 669.951c-151.644 0-216.849-76.762-235.763-105.061v96.369c0 3.521-2.839 6.336-6.328 6.336h-112.818c-3.505 0-6.313-2.831-6.313-6.336l-0.11-718.9c0-1.669 0.65-3.288 1.886-4.495 1.144-1.188 2.748-1.867 4.477-1.867h129.212c3.521 0 6.375 2.842 6.375 6.347v383.236c0 21.735 2.949 42.438 5.822 59.744 17.721 97.667 81.001 157.262 168.978 159.461h44.567c1.653 0 3.304 0.663 4.477 1.867 1.204 1.181 1.886 2.792 1.886 4.484v112.478c0.031 3.489-2.826 6.336-6.347 6.336z" />
<glyph unicode="&#xe913;" glyph-name="dollar-currency-sign-1" d="M705.737 454.581c-34.017 27.113-84.205 53.447-153.426 80.513-75.407 29.319-106.080 47.346-118.558 57.331-14.731 11.771-21.588 27.197-21.588 48.509 0 15.235 0 61.61 121.554 61.61 65.242 0 124.455-10.548 175.997-31.344 6.113-2.469 12.993-2.11 18.807 0.995 5.801 3.092 9.973 8.594 11.351 15.043l23.23 108.645c2.445 11.471-4.399 22.894-15.702 26.118-42.54 12.154-97.534 19.526-163.735 21.971v91.936c0.515 6.209-1.618 12.334-5.813 16.913-4.243 4.567-10.188 7.18-16.373 7.18h-76.437c-6.233 0-12.178-2.613-16.409-7.192s-6.341-10.74-5.825-16.937l0.635-96.958c-66.98-10.224-118.666-35.216-153.858-74.412-38.584-43.007-58.158-93.398-58.158-149.782 0-65.302 28.024-120.835 83.437-165.137 32.447-25.543 83.042-51.841 154.721-80.405 54.622-21.564 92.319-40.382 112.025-55.953 20.485-16.182 30.457-34.964 30.457-57.415 0-41.869-48.701-63.109-144.772-63.109-70.372 0-137.496 12.106-199.55 35.971-6.089 2.349-12.921 1.906-18.663-1.235-5.741-3.128-9.829-8.606-11.171-14.983l-23.242-110.143c-2.505-11.903 4.986-23.625 16.829-26.346 66.117-15.271 136.837-23.685 210.553-25.1l0.396-91.229c-0.348-6.137 0.935-12.154 5.154-16.625 4.219-4.483 10.093-7.012 16.242-7.012h77.648c0.096 0 0.192 0 0.264 0 12.334 0 22.307 9.985 22.307 22.307 0 1.714-0.192 3.392-0.563 4.986l0.288 95.028c134.907 23.757 206.023 103.886 206.023 232.68 0.024 63.804-28.276 118.821-84.073 163.579z" />
<glyph unicode="&#xe914;" glyph-name="dollar-currency-sign" d="M693.131 661.631c-3.427 9.197-7 17.996-12.245 27.252-2.579 4.933-4.755 8.451-7.095 12.526-2.987 4.957-5.721 8.54-8.696 12.954-12.028 16.662-26.377 33.296-44.245 48.305-17.859 14.86-39.478 28.131-64.729 35.913-10.286 3.254-21.179 5.452-32.361 6.606 0 16.084 0 34.628 0 53.202 0 25.407 0 50.815 0 69.872 0.059 1.182-0.18 2.348 0.263 3.482 0.669 1.14 0.61 2.263-0.752 3.345-2.257 2.162-4.383 4.23-6.39 6.164-3.846 3.864-7.837 7.239-11.038 10.028-3.021 2.767-6.127 4.951-7.95 6.433-1.908 1.493-2.912 2.288-2.912 2.288s-1.014-0.782-2.92-2.288c-1.821-1.481-4.933-3.666-7.95-6.433-3.219-2.789-7.196-6.164-11.024-10.028-1.995-1.934-4.133-3.989-6.374-6.164-1.368-1.081-1.427-2.203-0.758-3.345 0.443-1.136 0.186-2.3 0.247-3.482 0-19.059 0-44.466 0-69.872 0-20.348 0-40.559 0-57.658-24.966-6.653-48.813-19.304-68.714-37.047-22.254-19.512-39.329-45.456-49.368-74.335-9.969-28.925-12.315-60.879-6.885-91.211 5.297-30.208 18.043-59.051 33.892-83 15.84-23.669 32.205-43.611 49.56-63.59 34.46-39.371 71.473-74.179 104.155-108.354 16.341-16.971 31.249-34.185 43.063-50.731 11.873-16.628 18.861-32.716 19.615-45.082 0.392-6.259-0.216-12.194-2.748-18.681-2.185-6.273-6.891-13.736-11.539-19.661-11.669-14.502-24.439-24.511-39.715-31.75-30.174-14.263-66.714-14.071-97.437-4.84-30.835 9.044-56.769 27.080-69.012 46.479-12.303 19.435-10.517 37.053-2.263 53.705 8.464 16.244 20.528 29.026 28.674 37.292 8.522 8.647 13.085 13.259 13.085 13.259s-1.653-0.236-4.82-0.667c-3.219-0.382-7.716-1.362-13.886-2.965-5.895-1.875-13.439-4.062-21.644-8.457-8.296-4.23-17.798-10.009-26.854-19.445-9.102-9.175-17.731-22.862-21.023-40.327-3.379-17.465 0.525-37.364 9.343-54.255 17.911-34.066 50.712-59.582 90.358-75.624 11.861-4.695 24.558-8.375 37.807-10.953-0.143-0.683-0.085-1.338 0.257-2.009 0.538-1.134 0.293-2.282 0.346-3.438 0-18.804 0-43.839 0-68.876s0-50.086 0-68.876c-0.065-1.168 0.192-2.306-0.257-3.438-0.675-1.126-0.616-2.223 0.746-3.286 2.257-2.148 4.379-4.169 6.384-6.081 3.84-3.824 7.813-7.154 11.008-9.878 3.045-2.736 6.152-4.887 7.96-6.368 1.924-1.479 2.926-2.243 2.926-2.243s0.996 0.764 2.92 2.243c1.811 1.459 4.915 3.607 7.95 6.368 3.219 2.724 7.178 6.055 11.020 9.878 1.995 1.91 4.139 3.931 6.39 6.081 1.362 1.053 1.423 2.16 0.742 3.286-0.43 1.134-0.18 2.282-0.251 3.438 0 18.79 0 43.839 0 68.876 0 25.059 0 50.098 0 68.876 0.046 0.859 0.012 1.708 0.141 2.53 14.502 1.459 29.218 4.468 43.696 9.892 24.653 8.886 48.843 25.156 67.059 44.555 10.201 11.026 18.861 22.434 25.991 37.269 7.085 14.476 11.325 31.88 11.515 49.069 0.263 17.248-3.632 33.648-8.922 48.138-5.412 14.502-12.362 27.391-19.768 39.298-14.884 23.772-32.239 43.575-49.344 62.735-17.153 19.15-34.915 36.887-52.238 54.59-17.285 17.697-34.198 35.273-50.33 52.887-15.85 17.452-31.433 36.229-43.754 53.76-12.22 17.194-20.169 34.622-24.182 52.899-3.727 18.113-3.262 36.437 1.689 53.513 4.982 17.040 14.387 32.621 26.702 44.912 24.72 25.045 60.449 34.373 92.777 26.46 32.694-7.609 61.959-30.125 83.867-56.011 2.639-3.189 5.244-6.366 7.811-9.49 2.807-3.535 5.984-7.386 7.944-10.199 4.48-5.846 8.876-12.758 12.756-19.029 7.419-12.883 12.697-25.92 14.645-38.336 2.077-12.388 1.564-24.196-1.827-34.569-3.298-10.428-9.328-19.089-16.102-26.039-13.821-14.019-30.425-19.633-41.426-22.361-11.289-2.538-17.725-2.849-17.725-2.849s1.542-0.329 4.563-0.974c3.011-0.687 7.574-1.457 13.641-1.762 11.958-0.721 31.13-0.055 52.667 12.477 10.717 6.127 21.298 16.072 29.457 29.499 8.017 13.409 13.415 30.495 13.534 48.562 0.57 18.103-3.264 36.827-9.69 55.162z" />
<glyph unicode="&#xe915;" glyph-name="dollar-currency-symbol-1" d="M741.599 294.846c-0.572 6.502-1.791 12.895-3.261 19.264-1.088 6.452-3.597 12.548-5.317 18.858-2.485 6.023-4.638 12.238-7.624 18.033-2.988 5.809-5.845 11.701-9.549 17.149-3.383 5.736-7.23 10.922-11.138 16.001-7.97 10.457-17.232 19.707-26.877 28.48-9.836 8.532-20.029 16.612-30.678 24.022-10.576 7.479-21.488 14.533-32.615 21.151-11.068 6.723-22.372 13.051-33.81 19.111-10.54 5.831-21.428 10.989-32.184 16.444l1.866 278.392 13.085-0.932c6.417-0.514 12.762-1.613 19.133-2.386 6.419-0.687 12.596-2.406 18.908-3.548 6.359-1.053 12.404-3.221 18.573-4.834 6.237-1.494 12.046-4.147 18.069-6.227 6.072-1.973 11.569-5.216 17.378-7.75 5.783-2.643 10.995-6.264 16.539-9.321 2.774-1.543 5.176-3.615 7.792-5.384l7.671-5.532 0.192-0.15c1.171-0.831 2.594-1.32 4.137-1.332 3.918-0.024 7.133 3.132 7.145 7.062l0.623 92.543v0.4c0.012 2.402-1.221 4.727-3.417 6.011l-8.868 5.164c-2.916 1.858-6.023 3.059-9.094 4.422-6.108 2.899-12.345 5.026-18.656 6.986-6.239 2.289-12.645 3.447-18.979 5.127-6.334 1.715-12.74 2.497-19.121 3.781-6.381 1.32-12.786 1.848-19.194 2.79-6.381 0.95-12.786 1.494-19.192 2.044-9.98 1.039-19.934 1.529-29.913 2.044l0.586 87.522c0.036 5.14-4.11 9.339-9.25 9.375h-0.121l-56.62 0.374c-5.348 0.036-9.705-4.266-9.751-9.614v-0.137l-0.586-89.2-10.894-1.846c-6.549-1.446-13.033-3.221-19.57-4.834-6.448-1.87-12.776-4.272-19.163-6.401-6.316-2.384-12.424-5.36-18.613-8.031-6.072-2.946-11.909-6.446-17.865-9.66-5.778-3.526-11.282-7.493-16.939-11.242-5.479-4.11-10.793-8.658-16.165-13.009-4.917-4.452-9.351-8.945-14.048-13.421-5.21-5.522-9.119-10.332-13.745-15.554-4.193-5.336-8.025-10.977-12.064-16.484-3.621-5.778-6.967-11.759-10.451-17.635-2.905-6.201-5.849-12.41-8.569-18.696-2.188-6.49-4.66-12.914-6.549-19.499-1.512-6.692-3.423-13.217-4.559-20.095-0.873-6.836-2.23-14.145-2.588-20.621l-0.483-9.65-0.257-4.834c-0.018-1.057-0.115-1.035-0.089-2.988l0.073-2.533c0.257-13.534 1.003-27.194 3.747-40.639 2.301-13.516 6.353-26.782 11.432-39.604 5.030-12.309 12.544-26.226 19.545-36.175 4.040-6.264 8.771-11.209 13.164-16.838 4.859-4.883 9.691-9.824 14.675-14.527l15.506-13.081 16.104-11.897c10.977-7.44 21.953-14.956 33.336-21.507 11.233-6.921 22.724-13.17 34.228-19.408 8.761-4.83 17.681-9.25 26.579-13.745l-1.702-252.423c-2.457 0.142-4.929 0.251-7.392 0.443-7.865 1.229-15.799 2.258-23.615 3.597l-22.922 5.317-24.194 7.564c-2.988 0.813-7.297 2.772-10.882 4.086l-11.258 4.424c-7.588 2.808-14.377 6.812-21.624 10.146-7.291 3.312-13.421 8.009-20.215 11.893-3.478 1.864-6.179 4.539-9.25 6.797l-9.011 7.018-0.728 0.596c-2.998 2.317-6.745 3.716-10.821 3.74-9.836 0.073-17.843-7.851-17.902-17.649l-0.639-94.722-0.012-0.574c-0.024-5.88 2.976-11.628 8.407-14.867l11.383-6.753c3.831-2.141 7.487-4.709 11.49-6.488 7.964-3.633 15.692-8.021 23.902-10.973 8.199-2.964 16.221-6.632 24.63-8.797 8.36-2.366 16.612-5.235 25.091-6.812 8.443-1.731 16.85-3.967 25.354-4.996 8.498-1.098 16.988-2.903 25.492-3.405 8.498-0.659 17.024-1.71 25.516-2.034l5.659-0.178-0.639-94.724c-0.059-11.221 8.969-20.374 20.168-20.459h0.269l56.604-0.37c11.438-0.073 20.748 9.119 20.843 20.542v0.275l0.764 118.109 0.038 4.112c2.641 0.572 5.162 1.29 7.756 1.923 2.82 0.54 5.639 1.136 8.425 1.901 6.308 1.363 12.343 3.633 18.51 5.568 6.191 1.816 12.155 4.29 18.094 6.777 6.047 2.283 11.866 5.091 17.578 8.116l8.605 4.422 8.247 5.103c2.738 1.721 5.532 3.356 8.199 5.162l7.78 5.845c5.344 3.728 10.134 8.033 14.842 12.428 4.913 4.147 9.274 9.082 13.589 13.852 4.6 4.6 8.211 10.002 12.168 15.164 7.647 10.471 13.755 22.004 19.012 33.894 2.355 6.045 4.412 12.226 6.502 18.369 1.433 6.345 3.227 12.594 4.349 19.012 0.801 6.444 2.105 12.944 2.463 19.361 0.204 6.488 0.92 12.74 0.693 19.43-0.275 6.5-0.275 13.035-1.28 19.491zM580.096 372.645l8.534-6.573 7.887-7.351c5.21-4.911 10.611-9.62 14.94-15.308 4.515-5.497 9.44-10.659 12.811-16.864l5.603-8.927c1.901-2.94 2.869-6.359 4.339-9.476 1.312-3.215 2.82-6.369 3.991-9.561l2.283-9.778c2.078-6.094 1.828-13.755 2.331-20.902l0.129-2.725 0.071-1.351c-0.071 0.708-0.071-0.548-0.107-0.728l-0.406-5.164c-0.142-3.465-0.716-6.836-1.266-10.216-1.053-6.753-2.833-13.29-5.164-19.551-2.271-6.298-5.427-12.131-8.902-17.687-3.813-5.354-7.899-10.457-12.728-14.891-4.804-4.458-9.968-8.522-15.68-11.915-2.774-1.781-5.653-3.431-8.702-4.852-2.916-1.565-5.95-2.964-9.131-4.169-6.142-2.665-12.645-4.745-19.194-6.573-1.336-0.394-2.738-0.681-4.11-1.029l7.899 216.345c5.034-3.344 9.755-7.119 14.572-10.752zM452.040 545.565c-5.766 4.296-11.502 8.629-16.45 13.678-5.127 4.901-10.487 9.339-14.76 15.322l-6.787 8.449c-1.773 2.444-3.352 5.969-5.043 8.88-1.543 3.114-3.585 5.95-4.739 9.244l-3.275 9.899c-2.705 6.438-3.035 13.397-4.333 20.053-1.607 6.442-0.859 14.173-1.296 21.248l-0.15 5.408c-0.071 1.015 0.21 3.243 0.293 4.81 0.257 3.435 0.443 6.878 1.088 10.231 0.968 6.753 2.475 13.409 4.751 19.725 1.005 3.221 2.264 6.328 3.71 9.339 1.272 3.095 2.922 5.981 4.602 8.856 3.316 5.778 6.836 10.469 11.82 16.278 4.248 4.446 9.681 8.874 14.341 13.33 5.473 3.67 11.126 7.044 16.66 10.5 6.179 2.408 12.208 5.067 18.356 7.356l3.926 0.914-8.079-223.992c-5.016 3.261-9.875 6.824-14.636 10.473z" />
<glyph unicode="&#xe916;" glyph-name="dollar-currency-symbol-2" d="M742.090 285.528c0 96.611-63.087 159.94-187.164 188.642v251.644c89.838-9.244 105.698-51.48 105.698-137.502 0-4.422 2.035-8.59 5.537-11.316 3.489-2.714 7.996-3.647 12.322-2.569l47.094 12.019c6.567 1.684 11.074 7.742 10.759 14.515-5.355 117.789-38.189 190.205-181.397 201.8v147.703c-0.012 5.27-4.277 9.535-9.559 9.535h-66.782c-5.27 0-9.535-4.277-9.535-9.535v-148.212c-121.57-12.188-183.324-79.019-183.324-199.522 0-95.605 61.754-158.656 183.324-187.758v-253.11c-111.356 8.105-111.441 52.11-111.441 138.071 0 4.289-1.926 8.348-5.258 11.074-3.332 2.738-7.718 3.816-11.91 2.932l-47.106-9.608c-6.882-1.393-11.728-7.572-11.437-14.599 4.604-115.245 21.081-193.646 187.152-204.599v-139.586c0-5.282 4.265-9.535 9.535-9.535h66.782c5.282 0 9.547 4.277 9.547 9.535v140.47c124.114 12.201 187.164 79.031 187.164 199.51zM665.41 285.528c0-72.489-35.475-111.962-110.484-122.236v229.618c73.264-24.922 110.484-60.87 110.484-107.382zM469.062 496.669c-70.732 24.862-106.643 60.361-106.643 106.061 0 72.367 34.227 111.816 106.643 122.175v-228.237z" />
<glyph unicode="&#xe917;" glyph-name="dollar-currency-symbol-variant" d="M748.474 358.22c-8.045 21.89-20.443 41.547-37.157 58.972-16.776 17.412-38.092 33.502-63.973 48.233-25.919 14.743-56.964 29.698-93.148 44.89-0.811 0.337-1.572 0.661-2.37 0.998l24.26 240.365c11.063-6.099 20.443-14.144 28.027-24.322 18.971-25.457 28.451-61.192 28.451-107.192 31.719 0 56.153 7.484 73.378 22.451 17.175 14.955 25.781 34.937 25.781 59.957 0 16.963-4.266 33.153-12.735 48.557-8.494 15.417-21.216 28.812-38.192 40.2-16.963 11.388-37.955 20.431-62.951 27.141-10.702 2.856-22.252 4.989-34.35 6.623l12.934 128.234-66.144 6.673-13.309-131.901c-33.116-0.948-63.712-4.927-91.414-12.323-31.706-8.494-58.947-20.892-81.722-37.182-22.776-16.302-40.3-36.508-52.598-60.618-12.273-24.123-18.41-51.825-18.41-83.070 0-29.922 4.228-55.716 12.722-77.382s21.216-40.973 38.18-57.949c16.976-16.976 38.529-32.716 64.66-47.222 24.659-13.708 53.521-27.914 86.337-42.607l-27.291-270.026c-6.898 1.958-13.496 4.241-19.508 7.147-18.984 9.143-34.288 21.653-45.9 37.518-11.612 15.853-19.882 34.276-24.771 55.28-4.939 21.004-7.384 43.543-7.384 67.678-8.045 0-17.088-1.459-27.129-4.378-10.053-2.906-19.433-7.933-28.139-15.067-8.706-7.147-16.090-16.863-22.114-29.137-6.012-12.286-9.030-27.59-9.030-45.9 0-24.123 5.351-45.214 16.078-63.287 10.702-18.098 25.894-33.278 45.551-45.563 19.632-12.286 43.418-21.428 71.333-27.465 13.845-2.993 28.513-5.226 43.942-6.723l-12.835-127.136 66.144-6.673 13.346 131.988c33.864 1.11 65.221 5.276 93.721 12.909 33.278 8.931 61.728 22.439 85.414 40.537 23.674 18.073 41.971 40.512 54.931 67.304s19.445 58.049 19.445 93.796c0.012 28.55-4.004 53.783-12.061 75.673zM476.178 544.129c-21.678 10.041-39.315 20.431-52.935 31.145-13.633 10.727-23.561 22.439-29.81 35.174-6.261 12.722-9.38 27.802-9.38 45.214 0 16.078 2.445 30.808 7.371 44.204 4.914 13.396 12.623 25.008 23.125 34.837 10.477 9.816 23.998 17.412 40.512 22.788 15.529 5.039 34.138 7.608 55.604 7.908l-22.888-226.57c-3.954 1.796-7.92 3.58-11.6 5.301zM639.286 207.173c-6.71-15.404-16.414-28.6-29.149-39.539s-28.463-19.433-47.21-25.457c-14.631-4.702-31.095-7.509-49.255-8.544l24.971 247.188c8.644-4.116 16.901-8.12 24.285-11.899 21.865-11.163 39.215-22.090 51.912-32.816 12.735-10.714 21.64-22.214 26.779-34.5 5.139-12.298 7.696-26.917 7.696-43.892 0.025-18.285-3.33-35.149-10.028-50.54z" />
<glyph unicode="&#xe918;" glyph-name="dollar-currency-symbol" d="M674.879 738.262c-29.855 29.363-65.015 44.246-104.442 44.246h-25.533v145.498c0.002 17.662-14.334 31.994-32.003 31.994s-32-14.332-32-31.994v-145.498h-27.742c-39.738 0-74.901-14.839-104.513-44.097-29.699-29.374-44.764-64.484-44.764-104.369v-87.049c0-48.207 20.808-88.569 60.134-116.704 3.852-2.755 8.262-4.621 12.916-5.46l103.961-18.814v-256.633h-28.147c-22.603 0-42.002 8.323-59.311 25.423-17.204 17-25.556 36.31-25.556 59.068v51.575c0 17.685-14.332 31.987-32 31.987s-31.998-14.324-31.998-31.987v-51.575c0-40.166 14.999-75.359 44.572-104.586 29.462-29.124 64.56-43.902 104.303-43.902h28.147v-117.386c0-17.662 14.332-31.998 32-31.998s32.003 14.335 32.003 31.998v117.386h15.53c39.427 0 74.531 14.799 104.375 43.981 30.064 29.38 45.297 64.661 45.297 104.906v87.045c0 47.319-20.228 87.176-58.516 115.318-2.078 1.569-4.331 2.919-6.809 3.979-2.444 1.051-4.997 1.79-7.56 2.188l-92.317 16.701v258.996h25.533c22.382 0 41.858-8.467 59.575-25.875 17.554-17.271 26.098-36.559 26.098-58.989v-51.171c0-17.679 14.335-31.998 32.009-31.998s31.998 14.33 31.998 31.998v51.171c-0.011 39.917-15.231 75.12-45.241 104.627zM618.752 381.077c18.623-15.542 27.356-34.707 27.356-59.764v-87.045c0-22.659-8.51-42.002-26.042-59.133-17.707-17.322-37.226-25.754-59.633-25.754h-15.53v245.061l73.849-13.365zM480.891 471.069l-84.999 15.37c-19.072 15.607-28.015 35.022-28.015 60.555v87.049c0 22.466 8.423 41.72 25.748 58.859 17.442 17.238 36.912 25.61 59.522 25.61h27.743v-247.441z" />
<glyph unicode="&#xe919;" glyph-name="dollar-elegant-currency-symbol" d="M699.897 265.475c3.574 81.952-51.938 141.402-100.456 176.564l-8.958 6.419-43.709 31.189v280.194c72.993-14.566 93.543-71.971 103.301-115.409 4.738-6.207 20.855-3.903 25.123 1.916 1.81 41.957-4.726 98.304-12.697 122.686-7.994 0.353-21.902 2.951-34.716 7.524-22.595 7.136-52.926 13.837-81.011 16.27v142.93c0 13.39-10.839 24.241-24.241 24.241-13.39 0-24.253-10.851-24.253-24.241v-143.024c-107.298-8.641-170.463-76.72-174.178-162.175-3.562-81.952 51.915-141.414 100.456-176.564l8.958-6.419 64.776-46.248v-268.003c-90.263 6.948-113.728 70.877-124.356 118.254-4.726 6.195-20.867 3.903-25.123-1.916-1.81-41.957 4.726-98.304 12.697-122.698 7.994-0.341 21.902-2.939 34.716-7.524 25.675-8.112 61.378-15.671 92.367-17.023 3.303-0.141 6.454 0 9.687-0.047v-142.143c0-13.39 10.863-24.241 24.253-24.241 13.402 0 24.241 10.851 24.241 24.241v145.599c94.472 15.377 149.666 79.929 153.123 159.647zM474.98 530.916c-35.985 24.582-82.128 68.632-79.6 126.589 1.834 42.498 22.478 100.326 102.936 105.464v-248.711l-23.336 16.658zM546.786 135.888v230.854l2.257-1.634c35.997-24.582 82.128-68.644 79.6-126.601-1.669-38.489-18.821-89.511-81.857-102.619z" />
<glyph unicode="&#xe91a;" glyph-name="dollar-straight-symbol" d="M929.485 663.437v139.171h-337.904v157.392h-179.154v-157.392h-317.912v-417.485h640.962v-146.611l-640.962 1.131v-140.275h317.912v-163.368h179.154v163.368h337.904v424.899h-656.761v139.171z" />
<glyph unicode="&#xe91b;" glyph-name="dollar-symbol-of-currency" d="M574.87 489.941h-13.085v206.195h142.452c23.165 0 41.947 18.781 41.947 41.947s-18.781 41.947-41.947 41.947h-142.452v138.035c0 23.154-18.781 41.936-41.958 41.936s-41.947-18.781-41.947-41.936v-138.046h-28.773c-103.109 0-186.98-83.882-186.98-186.98 0-103.109 83.871-186.969 186.98-186.969h28.773v-206.184h-158.129c-23.154 0-41.936-18.793-41.936-41.958 0-23.154 18.781-41.947 41.936-41.947h158.14v-138.035c0-23.165 18.781-41.947 41.947-41.947s41.958 18.781 41.958 41.947v138.057h13.085c103.12 0 186.991 83.882 186.991 186.98-0.022 103.087-83.893 186.958-187.002 186.958zM346.010 593.039c0 56.845 46.264 103.098 103.109 103.098h28.773v-206.195h-28.773c-56.845 0-103.109 46.253-103.109 103.098zM574.87 199.886h-13.085v206.184h13.085c56.834 0 103.12-46.242 103.12-103.12-0.011-56.845-46.275-103.064-103.12-103.064z" />
<glyph unicode="&#xe91c;" glyph-name="dominican-republic-peso" d="M229.424 422.62c42.683 36.278 58.603 69.774 58.603 122.882 0 36.709-13.304 68.675-37.435 89.946-29.135 26.364-70.156 38.113-133.005 38.113l-108.702-0.359c-4.912 0-8.888-4.008-8.888-8.909v-441.741c0-4.929 3.997-8.915 8.909-8.915h56.645c4.924 0 8.909 3.997 8.909 8.915v181.195h86.566l66.729-184.249c1.28-3.526 4.648-5.873 8.383-5.873h58.603c2.908 0 5.647 1.427 7.349 3.839 1.645 2.382 2.021 5.435 1.022 8.197l-73.689 196.961zM123.479 464.549h-49.027v147.512l47.050 0.044c41.988-0.46 92.035-13.531 92.035-73.121 0-45.219-35.345-74.434-90.058-74.434zM485.53 671.697c-39.459 0-79.599-3.037-119.334-9.027l-6.377-0.978v-436.74l6.669-0.741c30.152-3.425 64.402-5.165 101.797-5.165 79.228 0 130.114 18.593 175.654 64.144 41.99 41.319 64.213 101.051 64.213 172.725 0 67.856-21.233 121.731-63.067 160.113-37.86 35.261-76.104 55.668-159.555 55.668zM479.136 278.803c-13.89 0-33.689 0.247-48.668 2.133v327.24c11.644 2.105 30.556 4.401 57.632 4.401 54.494 0 76.972-13.344 106.726-43.289 26.947-27.109 40.476-65.89 40.151-115.28-0.009-121.178-48.066-175.205-155.841-175.205zM1016.478 410.022c-4.941 13.348-12.417 24.711-22.278 33.717-9.969 9.139-22.635 17.016-37.657 23.421-13.361 5.702-29.080 11.323-46.607 16.775v128.974c29.405-7.148 45.496-26.476 47.821-57.773h0.101l0.192-3.503c0.574-14.579 12.417-25.999 27.048-25.999 15.595 0 27.519 11.616 27.663 26.996l-0.549 4.884c-3.93 64.032-37.501 99.501-102.276 107.95v69.567c0 14.524-11.8 26.341-26.339 26.341-14.518 0-26.328-11.817-26.328-26.341v-68.844c-11.589-1.404-22.502-3.896-32.517-7.758-15.573-6.001-29.023-14.389-40.005-24.869-10.938-10.476-19.413-22.983-25.184-37.193-5.796-14.26-8.746-30.275-8.746-47.578 0-19.189 2.211-35.334 6.603-47.954 4.289-12.44 11.148-23.123 20.356-31.736 9.331-8.746 21.311-16.281 35.571-22.422 12.395-5.332 27.215-10.588 43.923-15.673v-146.59c-37.725 8.174-57.667 33.212-59.239 74.755v3.56c0 14.855-12.159 26.958-27.114 26.958-15.888 0-27.519-11.363-27.688-27.004 3.942-79.852 41.33-123.249 114.064-132.308v-69.41c0-14.518 11.8-26.341 26.316-26.341 14.528 0 26.339 11.825 26.339 26.341v69.028c12.552 1.605 24.309 4.479 34.952 8.88 16.64 6.907 31.012 16.37 42.723 28.136 11.697 11.756 20.772 25.712 26.991 41.5 6.219 15.808 9.386 33.132 9.386 51.489-0.023 19.695-2.538 36.492-7.522 50.023zM857.267 500.367c-2.787 0.916-5.435 1.814-7.86 2.633-13.181 4.565-22.77 9.127-29.238 13.924-6.761 5.024-10.981 10.655-12.575 16.762-1.415 5.564-2.156 12.879-2.156 21.693 0 10.132 2.042 19.189 6.084 26.941 4.054 7.737 9.712 14.176 16.775 19.155 6.937 4.872 15.088 8.588 24.183 11.016 1.571 0.422 3.144 0.756 4.762 1.117v-113.238h0.025zM949.121 300.674c-9.443-9.027-22.646-14.866-39.174-17.527v130.591c2.661-0.942 5.368-1.862 7.748-2.739 13.474-4.872 24.117-9.902 31.618-14.978 7.815-5.3 13.192-11.475 16-18.334 2.684-6.635 4.054-14.786 4.054-24.286-0.025-22.141-6.829-39.881-20.245-52.726z" />
<glyph unicode="&#xe91d;" glyph-name="estonia-kroon-currency-symbol" d="M556.004-36.955c4.477-4.939 5.466-11.915 2.625-17.797-2.81-5.636-8.692-9.233-14.973-9.233h-113.635c-4.508 0-8.917 1.867-12.032 5.080l-251.865 262.328-13.994-0.232v-250.966c0-8.956-7.425-16.227-16.579-16.227h-95.953c-9.139 0-16.587 7.271-16.587 16.227v991.552c0 8.945 7.449 16.224 16.587 16.224h95.951c9.154 0 16.579-7.279 16.579-16.224v-580.343l235.338 298.675c3.064 3.939 7.982 6.307 13.090 6.307h119.138c6.237 0 11.823-3.335 14.728-8.768 2.996-5.581 2.332-12.474-1.666-17.483l-278.539-348.385 301.789-330.735zM994.644 669.951c-151.644 0-216.849-76.762-235.763-105.061v96.369c0 3.521-2.839 6.336-6.328 6.336h-112.818c-3.505 0-6.313-2.831-6.313-6.336l-0.11-718.9c0-1.669 0.65-3.288 1.886-4.495 1.144-1.188 2.748-1.867 4.477-1.867h129.212c3.521 0 6.375 2.842 6.375 6.347v383.236c0 21.735 2.949 42.438 5.822 59.744 17.721 97.667 81.001 157.262 168.978 159.461h44.567c1.653 0 3.304 0.663 4.477 1.867 1.204 1.181 1.886 2.792 1.886 4.484v112.478c0.031 3.489-2.826 6.336-6.347 6.336z" />
<glyph unicode="&#xe91e;" glyph-name="euro-currency-symbol" d="M885.816 149.258c-60.487-63.625-137.93-98.67-218.069-98.67-131.345 0-245.072 92.237-298.595 225.567h364.834c31.636 0 57.286 25.65 57.286 57.286s-25.65 57.286-57.286 57.286h-393.946c-2.253 18.728-3.483 37.833-3.483 57.288 0 21.944 1.545 43.455 4.427 64.448h393.002c31.636 0 57.286 25.65 57.286 57.286s-25.65 57.288-57.286 57.288h-361.787c54.671 129.426 166.58 218.405 295.547 218.405 80.138 0 157.582-35.048 218.069-98.666 21.776-22.917 58.014-23.858 80.981-2.063 22.936 21.805 23.844 58.064 2.070 80.993-82.322 86.603-189.258 134.296-301.106 134.296-190.98 0-354.231-138.706-417.582-332.981h-153.512c-31.636 0-57.286-25.65-57.286-57.286s25.65-57.286 57.286-57.286h128.965c-2.321-21.14-3.649-42.608-3.649-64.448 0-19.384 1.013-38.463 2.865-57.288h-128.182c-31.636 0-57.286-25.65-57.286-57.286s25.65-57.286 57.286-57.286h151.238c61.623-198.029 226.523-340.141 419.841-340.141 111.86 0 218.769 47.705 301.091 134.293 21.788 22.936 20.894 59.19-2.056 80.993-22.921 21.805-59.19 20.894-80.967-2.028z" />
<glyph unicode="&#xe91f;" glyph-name="ghana-cedis" d="M807.734 337.808c-12.183 13.22-26.771 19.84-43.724 19.84-19.854 0-34.276-6.526-43.242-19.581-8.966-13.066-16.505-29.962-22.573-50.687-14.422-43.983-35.806-77.34-64.132-100.042-28.361-22.706-63.033-34.064-104.029-34.064-16.892 0-32.785 2.121-47.755 6.128l139.448 529.173c2.037-1.379 4.11-2.735 6.080-4.254 25.13-19.323 46.999-48.472 65.591-87.436 11.193-23.599 21.375-40.238 30.492-49.885 9.132-9.662 22.834-14.48 41.073-14.48 16.341 0 30.279 6.963 41.814 20.914 11.535 13.949 17.31 30.044 17.31 48.283 0 33.249-11.852 68.561-35.559 105.922-23.707 37.373-57.827 68.748-102.34 94.152-9.897 5.643-20.159 10.557-30.682 14.94l27.287 103.564c4.453 16.898-5.631 34.204-22.529 38.659-16.872 4.443-34.216-5.643-38.667-22.541l-26.84-101.81c-19.441 3.498-39.731 5.266-60.879 5.266-46.764 0-90.813-9.297-132.139-27.901-41.32-18.604-77.356-45.691-108.101-81.273-30.739-35.583-54.362-78.4-70.869-128.461-16.501-50.063-24.743-106.747-24.743-170.042 0-38.976 3.281-75.805 9.843-110.493s16.407-67.313 29.549-97.885c13.124-30.588 28.979-58.204 47.559-82.887 20.824-27.171 43.636-49.074 68.467-65.699 11.364-7.623 23.392-14.199 35.942-19.981l-20.954-79.54c-4.453-16.886 5.631-34.204 22.533-38.659 2.703-0.706 5.408-1.048 8.089-1.048 14.015 0 26.84 9.391 30.568 23.589l20.017 75.958c26.928-5.785 56.17-8.86 88.066-8.86 49.002 0 91.923 8.765 128.768 26.286 36.819 17.521 67.1 40.307 90.781 68.386 23.707 28.078 41.097 56.673 52.136 85.821 11.053 29.151 16.577 56.236 16.577 81.263 0.002 19.684-6.078 36.133-18.235 49.365zM368.334 271.615c-15.369 40.576-23.063 91.443-23.063 152.592 0 91.546 17.362 162.168 52.13 211.89 34.758 49.698 78.799 77.186 137.421 77.186 9.542 0 18.662-0.672 27.44-1.967l-137.786-522.904c-24.602 19.567-41.998 45.887-56.142 83.202z" />
<glyph unicode="&#xe920;" glyph-name="guatemala-quetzal-currency-symbol" d="M899.836 530.613c0 250.588-149.837 429.387-380.275 429.387-229.193 0-395.397-175.028-395.397-447.023 0-273.239 172.501-421.832 373.99-429.387l43.030-0.584 55.841-71.484 34.98-47.588c11.44-18.055 30.943-27.933 50.826-27.933 10.983 0 22.118 3.009 32.085 9.332 28.048 17.75 36.377 54.902 18.626 82.924l-70.379 95.329c137.864 51.321 236.672 192.766 236.672 407.028zM611.271 193.597l-41.938 56.552c-17.75 28.010-54.876 36.351-82.937 18.601-28.035-17.763-36.364-54.889-18.614-82.937l7.555-10.17c-149.418 20.798-235.25 172.616-234.082 339.873-1.27 183.84 89.412 355.097 274.509 355.097 180.069 0 268.211-175.028 268.211-345.015 0.013-152.808-61.187-283.359-172.705-332.001z" />
<glyph unicode="&#xe921;" glyph-name="honduras-lempira-currency-symbol" d="M792.454 61.083h-422.821v890.971c0 4.398-3.533 7.946-7.946 7.946h-130.14c-4.369 0-7.961-3.548-7.961-7.946v-1008.108c0-4.398 3.592-7.946 7.961-7.946h560.907c4.383 0 7.961 3.548 7.961 7.946v109.191c0 4.383-3.577 7.946-7.961 7.946z" />
<glyph unicode="&#xe922;" glyph-name="hungary-forint-currency-symbol" d="M518.942 937.766h-504.25c-8.118 0-14.692-6.559-14.692-14.674v-936.305c0-8.079 6.574-14.653 14.692-14.653h120.842c8.118 0 14.677 6.543 14.677 14.653v409.045h339.571c8.118 0 14.692 6.559 14.692 14.669v100.020c0 8.102-6.574 14.677-14.692 14.677h-339.571v281.82h368.73c8.11 0 14.682 6.559 14.682 14.669v101.405c0.003 8.115-6.572 14.674-14.682 14.674zM1009.347 673.827h-160.354v146.509c0 4.561-2.118 8.853-5.714 11.626-3.594 2.765-8.264 3.693-12.746 2.549l-119.483-0.055c-6.406-1.712-10.888-7.533-10.888-14.17v-146.478h-89.49c-8.108 0-14.682-6.574-14.682-14.677v-93.079c0-8.095 6.574-14.669 14.682-14.669h89.488v-352.053c0-89.93 16.343-148.79 50.886-184.685 32.303-36.908 81.728-56.416 143.014-56.416 45.605 0 86.076 6.315 113.941 17.772 5.79 2.38 9.43 8.173 9.046 14.44l-0.385 91.697c-0.307 4.407-2.518 8.461-6.114 11.028-3.594 2.547-8.108 3.378-12.408 2.24-13.087-3.563-40.489-7.835-72.145-7.835-39.982 0-76.999 14.053-76.999 115.936v347.908h160.323c8.11 0 14.682 6.574 14.682 14.672v93.079c0.003 8.084-6.541 14.659-14.651 14.659z" />
<glyph unicode="&#xe923;" glyph-name="iceland-krona-currency-symbol" d="M261.323 295.115l274.324 343.111c4.963 6.212 5.79 14.713 2.068 21.646-3.571 6.656-10.478 10.776-18.077 10.776h-118.228c-6.28 0-12.287-2.903-16.071-7.744l-226.516-287.518v564.589c0 11.046-9.146 20.024-20.376 20.024h-95.216c-11.235 0-20.382-8.993-20.382-20.024v-983.952c0-11.046 9.146-20.024 20.382-20.024h95.216c11.23 0 20.374 8.993 20.374 20.024v245.185l8.32 0.14 248.759-259.126c3.831-3.95 9.208-6.218 14.744-6.218h112.749c7.752 0 14.983 4.458 18.383 11.367 3.556 7.324 2.299 15.963-3.247 22.030l-297.204 325.713zM990.932 672.173c-136.082 0-202.859-60.893-230.036-96.037v83.491c0 5.629-4.564 10.209-10.204 10.209h-111.951c-5.609 0-10.188-4.582-10.188-10.209l-0.109-713.394c0-2.727 1.104-5.36 2.973-7.182 1.884-1.931 4.533-3.050 7.262-3.050h128.222c5.653 0 10.248 4.582 10.248 10.217v380.303c0 21.444 2.895 41.668 5.715 58.581 17.22 94.941 78.509 152.885 163.824 155.007h44.226c2.711 0 5.375 1.094 7.197 2.981 1.962 1.928 3.035 4.502 3.035 7.231v111.616c0.034 5.658-4.561 10.237-10.214 10.237z" />
<glyph unicode="&#xe924;" glyph-name="india-rupee-currency-symbol" d="M820.244 739.523h-76.567c-5.063 44.376-20.52 85.914-45.047 118.066h121.611c29.13 0 52.718 21.752 52.718 50.872 0 29.134-23.59 51.486-52.718 51.486h-412.373c-1.509 0-2.963 0.053-4.513 0.053-1.003 0-2.008-0.053-3.011-0.053h-196.588c-29.127 0-52.718-22.368-52.718-51.486s23.59-50.872 52.718-50.872h233.79c73.833-5.374 151.171-33.938 171.542-118.066h-405.332c-29.127 0-52.718-23.606-52.718-52.738 0-29.12 23.59-52.738 52.718-52.738h400.079c-24.891-66.484-93.262-107.034-188.285-107.034h-166.291c-28.397 0-51.419-23.022-51.419-51.419 0-28.404 23.022-51.426 51.419-51.426h60.412c0.25-0.027 0.474-0.149 0.724-0.149h95.408c103.658-3.939 149.763-48.889 176.197-171.867 20.682-91.348 35.91-150.846 47.886-186.483 8.974-32.97 26.732-82.644 57.538-112.314 12.047-11.585 27.584-17.35 43.068-17.35 16.297 0 32.592 6.375 44.788 19.056 22.349 23.229 22.755 59.175 2.274 83.201-0.094 0.284-0.053 0.595-0.202 0.879-18.91 35.081-41.783 129.177-69.692 248.528-22.184 97.047-63.629 157.493-126.431 184.333 78.857 30.272 133.104 88.174 154.365 162.059h84.648c29.13 0 52.718 23.618 52.718 52.738s-23.583 52.724-52.713 52.724z" />
<glyph unicode="&#xe925;" glyph-name="indonesia-rupiah-currency-symbol" d="M793.707 701.405c-68.659 0-122.039-24.289-162.617-74.125l-0.166 50.114c-0.014 6.809-5.564 12.387-12.4 12.4l-77.53 0.111c-3.322 0-6.435-1.287-8.802-3.64-2.353-2.353-3.668-5.481-3.668-8.802l-0.221-713.077c0-3.294 1.301-6.422 3.654-8.816 2.353-2.339 5.481-3.626 8.802-3.626h80.45c6.864 0 12.428 5.564 12.428 12.428v240.866c34.752-36.938 86.304-57.767 144.473-57.767 118.426 0 245.876 88.962 245.876 284.295 0 156.236-96.836 269.639-230.279 269.639zM779.369 244.224c-82.526 0-149.649 80.769-149.649 180.055 0 99.272 67.136 180.041 149.649 180.041 82.554 0 149.69-80.769 149.69-180.041 0.014-99.286-67.136-180.055-149.69-180.055zM362.628 550.096c65.296 55.954 90.83 110.206 90.83 192.095 0 57.864-21.023 108.268-59.109 141.885-45.851 41.491-110.233 59.981-208.758 59.981l-169.315-0.554c-8.968-0.014-16.275-7.349-16.275-16.345v-687.917c0-9.010 7.335-16.345 16.345-16.345h88.2c8.996 0 16.331 7.321 16.331 16.345v279.77h130.661l103.3-285.292c2.339-6.463 8.511-10.781 15.362-10.781h91.259c5.342 0 10.366 2.602 13.438 7.044 3.017 4.36 3.723 9.978 1.868 15.016l-114.136 305.096zM332.554 732.046c0-68.908-54.086-113.444-137.788-113.444h-73.918v224.798l70.818 0.083c93.487-1.038 140.888-38.53 140.888-111.437z" />
<glyph unicode="&#xe926;" glyph-name="iran-rial" d="M633.702 289.35h0.034c18.813 0 37.681 0.069 56.664 0.135l7.598 0.023c21.853 0.112 43.841 0.192 66.054 0.192 5.27 0 9.693 4.109 10.065 9.379 10.762 155.068-1.373 220.559-48.097 259.562-1.811 1.497-4.097 2.326-6.44 2.326l-1.158-0.069c-2.769-0.299-5.303-1.773-6.958-4.013-26.278-35.426-25.533-67.445 2.442-103.791 10.167-13.217 14.095-32.447 18.758-55.167 1.442-7.093 2.939-14.343 4.695-21.786-16.246 0.034-32.009 0.135-47.927 0.236l-4.166 0.023c-16.731 0.114-32.956 0.213-48.851 0.213-28.337 0-51.552-0.337-73.045-1.048l-3.322-0.044c-27.954 0-40.192 10.133-42.258 34.948-2.709 32.784-5.809 71.31-8.748 108.098-3.829 47.973-7.436 93.033-9.733 118.72-3.973 44.487-28.636 116.88-31.474 125.111-1.429 4.025-5.257 6.733-9.535 6.733-4.312 0-8.152-2.741-9.52-6.823-2.2-6.491-5.303-13.375-8.314-20.063-7.297-16.23-14.828-33.003-13.177-50.138 3.608-36.889 10.295-73.873 16.882-110.282l0.227-1.221c4.109-22.737 8.371-46.251 11.747-69.382 3.377-23.242 5.905-47.775 8.118-69.43 2.804-27.403 5.697-55.731 10.329-83.864 7.059-42.975 31.141-67.045 67.816-67.776 26.996-0.556 56.011-0.804 91.294-0.804zM622.207 206.139l40.013-45.641c1.8-2.084 4.404-3.331 6.44-3.377l1.17-0.101c2.556 0 5 0.968 6.88 2.726l43.479 40.607c3.985 3.728 4.301 9.876 0.72 13.973l-42.748 49.154c-1.789 2.049-4.278 3.267-7.609 3.467-2.499 0-4.989-0.99-6.8-2.689l-43.897-40.474c-1.465-1.352-2.263-3.063-2.747-4.842l-39.731 47.060c-1.745 2.105-4.333 3.4-7.678 3.592-2.531 0-4.954-0.935-6.798-2.623l-43.571-39.641c-4.059-3.684-4.442-9.853-0.844-14.040l43.39-50.428c1.779-2.061 4.345-3.333 7.385-3.501h0.261c2.531 0 4.954 0.945 6.777 2.611l43.121 39.179c1.47 1.398 2.314 3.154 2.787 4.989zM396.092 752.090c-2.061 15.785-13.674 29.779-35.504 42.782-8.293 4.96-15.84 12.278-23.823 20.030-4.126 4.019-8.415 8.173-13.015 12.227-1.83 1.638-4.217 2.539-6.71 2.539l-1.587-0.114c-3.011-0.484-5.596-2.286-7.093-4.891-24.325-41.758-15.48-78.218-5.236-120.437l2.364-9.811c18.897-79.468 26.773-163.348 34.4-244.589l2.849-30.167c4.891-50.708-1.21-84.437-19.185-106.166-18.724-22.607-51.531-34.946-106.387-40.013-9.463-0.878-18.857-0.992-26.744-0.992l-19.668 0.114c-50.175 0.091-86.627 13.691-105.441 39.304-9.12 12.428-12.566 23.135-11.518 35.834 1.223 14.771 16.202 62.687 39.281 97.768 3.389 5.133 4.566 11.293 3.322 17.322-1.238 6.028-4.762 11.213-9.895 14.59-10.295 6.794-25.236 3.604-31.828-6.417-32.339-45.605-47.881-110.048-50.691-122.657-8.865-36.881-2.815-72.91 17.005-101.427 20.266-29.125 52.916-47.792 91.938-52.519 19.764-2.389 40.445-3.558 63.205-3.558 18.96 0 39.251 0.823 62.068 2.499 54.704 4.055 95.905 22.091 122.492 53.58 28.569 33.832 40.019 82.85 34.045 145.695-5.061 53.455-11.348 107.056-17.434 158.891l-0.354 3.067c-4.419 37.767-8.985 76.755-13.009 115.157-1.091 10.482 1.076 22.124 4.808 25.952 20.918 21.48 29.609 39.392 27.346 56.409zM989.909 420.533l-5.956 7.128c-11.573 14.906-41.398 52.942-68.407 83.768-13.105 14.941-37.897 16.602-52.881 3.497-15.537-13.617-17.091-37.335-3.489-52.876 19.802-22.602 41.937-50.218 57.293-69.706 2.804-3.086 4.943-5.945 7.048-8.781 1.903-2.545 3.783-5.055 6.023-7.678 19.602-22.752 47.432-68.452 13.792-119.023-61.923-93.043-133.503-140.236-212.74-140.236-0.011 0-0.011 0-0.023 0-6.227 0-12.596 0.291-18.958 0.855-15.695 1.417-31.714 4.931-47.23 8.354-3.253 0.72-6.8 1.442-10.246 2.139-4.345 0.878-8.568 1.733-11.967 2.522-8.015 1.869-13.611-4.053-15.425-8.691-1.080-5.179 2.049-10.347 7.148-11.777 17.013-4.773 34.98-11.305 50.834-17.068 35.982-13.093 73.18-26.615 109.995-26.626 2.916 0 5.821 0.090 8.76 0.259 77.109 4.64 130.53 59.578 186.485 139.975 1.35 1.419 32.965 35.499 34.011 103.995 1.059 68.531-32.693 108.374-34.066 109.97z" />
<glyph unicode="&#xe927;" glyph-name="israel-shekel-currency-symbol" d="M421.722 746.447h-304.668l-0.272-655.271c0-32.18-26.198-58.39-58.39-58.39s-58.39 26.211-58.39 58.39l0.324 713.726c0.039 32.167 26.224 58.326 58.39 58.326h363.020c175.301 0 317.904-142.615 317.904-317.904v-298.44c0-32.18-26.211-58.39-58.39-58.39s-58.39 26.211-58.39 58.39v298.44c-0.013 110.89-90.233 201.123-201.136 201.123zM965.61 863.228c-32.193 0-58.39-26.198-58.39-58.39l-0.272-655.271h-304.668c-110.903 0-201.123 90.22-201.123 201.123v298.44c0 32.193-26.198 58.39-58.39 58.39s-58.39-26.198-58.39-58.39v-298.44c0-175.288 142.602-317.904 317.904-317.904h363.020c32.167 0 58.365 26.159 58.39 58.326l0.311 713.726c0 32.18-26.198 58.39-58.39 58.39z" />
<glyph unicode="&#xe928;" glyph-name="jamaica-dollar-currency-symbol" d="M403.434 782.922v-475.077c0-171.22-76.164-258.023-226.414-258.023-34.232 0-77.244 7.428-102.361 17.689-5.010 2.069-7.933 7.417-6.97 12.738l13.682 74.806c0.643 3.433 2.732 6.318 5.724 8.002 3.064 1.684 6.72 1.915 9.86 0.676 21.079-8.195 47.581-12.904 72.681-12.904 73.517 0 119.1 27.503 119.1 164.379v467.711c0 6.361 5.163 11.537 11.537 11.537h91.646c6.34 0.002 11.516-5.174 11.516-11.535zM956.493 304.272c0-29.98-5.131-58.289-15.316-84.134-10.147-25.782-24.99-48.578-44.085-67.799-19.145-19.22-42.604-34.69-69.79-45.974-17.409-7.223-36.631-11.894-57.127-14.511v-112.814c0-23.74-19.3-43.040-43.040-43.040-23.703 0-43.038 19.3-43.038 43.040v113.376c-118.802 14.83-179.911 85.73-186.288 216.184 0.261 25.554 19.279 44.111 45.201 44.111 24.454 0 44.353-19.745 44.353-44.035v-5.781c2.539-67.887 35.098-108.77 96.734-122.145v239.502c-27.29 8.311-51.476 16.886-71.692 25.592-23.355 10.052-42.91 22.36-58.151 36.637-15.035 14.059-26.216 31.52-33.26 51.858-7.147 20.613-10.771 46.989-10.771 78.341 0 28.283 4.798 54.424 14.275 77.723 9.451 23.228 23.299 43.681 41.165 60.772 17.92 17.147 39.9 30.805 65.374 40.626 16.335 6.312 34.18 10.401 53.070 12.686v112.475c0.004 23.74 19.339 43.038 43.042 43.038 23.74 0 43.040-19.298 43.040-43.038v-113.65c105.82-13.805 160.663-71.744 167.098-176.363l0.892-7.983c-0.268-25.132-19.706-44.098-45.208-44.098-23.893 0-43.282 18.635-44.16 42.463l-0.333 5.724h-0.127c-3.828 51.144-30.097 82.687-78.161 94.391v-210.723c28.615-8.903 54.32-18.080 76.17-27.398 24.53-10.473 45.232-23.345 61.517-38.27 16.070-14.716 28.285-33.262 36.35-55.087 8.13-22.068 12.265-49.559 12.265-81.698zM684.1 718.583c-2.565-0.577-5.172-1.112-7.761-1.807-14.884-3.962-28.184-10.026-39.516-18.009-11.563-8.117-20.779-18.642-27.415-31.302-6.586-12.647-9.955-27.447-9.955-43.996 0-14.409 1.201-26.344 3.535-35.445 2.578-9.993 9.51-19.196 20.524-27.389 10.568-7.856 26.191-15.277 47.786-22.744 3.93-1.36 8.27-2.822 12.79-4.327v185.018h0.011zM867.241 293.488c0 15.521-2.235 28.844-6.625 39.682-4.543 11.205-13.336 21.276-26.165 29.954-12.226 8.283-29.583 16.504-51.599 24.467-3.917 1.404-8.309 2.935-12.673 4.465v-213.376c27.033 4.364 48.589 13.889 64.020 28.644 21.924 20.956 33.042 49.954 33.042 86.164z" />
<glyph unicode="&#xe929;" glyph-name="kazakhstan-tenge-currency-symbol" d="M485.701 728.556h-366.072c-7.087 0-12.846-5.77-12.846-12.857v-212.449c0-122.798-7.511-186.758-50.456-218.32-9.777-8.181-27.276-15.279-45.68-18.526-6.786-1.183-11.406-7.477-10.524-14.341l9.81-75.188c0.848-6.361 6.328-11.16 12.756-11.16 47.577 0 80.779 10.29 110.667 34.084 74.607 48.604 89.573 152.15 89.573 303.44v124.427h155.152v-449.061c0-7.087 5.77-12.846 12.834-12.846h94.785c7.087 0 12.846 5.77 12.846 12.846v537.094c0 7.098-5.781 12.857-12.846 12.857zM951.602 466.554l-6.875 3.058 6.719 3.404c34.050 17.287 74.239 51.126 72.498 114.137-3.516 126.135-125.845 143.132-245.038 143.132l-166.312-0.022c-7.065 0-12.801-5.748-12.801-12.801v-535.699c0-3.449 1.328-6.685 3.783-9.107 2.422-2.399 5.625-3.716 9.018-3.716l137.53-0.413c7.165-0.212 14.084-0.312 21.071-0.312 98.323 0 169.56 21.618 211.791 64.195 26.763 27.030 40.155 62.364 39.753 105.008-0.658 65.858-23.917 108.1-71.136 129.137zM901.481 333.868c0.379-20.948-5.111-37.376-16.317-48.782-17.935-18.27-46.505-20.234-57.934-20.234-2.444 0-4.096 0.078-6.161 0.19l-107.798 0.022v133.668l110.789-0.513c37.432 0 77.42-16.875 77.42-64.351zM831.483 513.417l-4.71-0.368c-2.444-0.201-3.716-0.19-6.049-0.078h-107.452v133.378l111.57-0.223c37.041 0 76.638-16.875 76.638-64.34 0.379-20.959-5.111-37.376-16.317-48.793-16.383-16.696-36.215-18.225-53.682-19.575z" />
<glyph unicode="&#xe92a;" glyph-name="kyrgyzstan-som-currency-symbol" d="M492.756 718.637v-543.012c0-4.051-3.283-7.334-7.345-7.334h-95.83c-4.051 0-7.345 3.283-7.345 7.334v459.662h-168.145v-131.429c0-151.084-14.725-254.293-88.010-302.067-29.495-23.469-62.115-33.545-108.806-33.545-3.678 0-6.815 2.753-7.289 6.386l-9.918 76.005c-0.508 3.927 2.133 7.515 6.014 8.203 19.52 3.453 38.239 11.080 48.834 19.972 45.133 33.151 53.043 98.966 53.043 225.036v214.79c0 4.051 3.306 7.357 7.345 7.357h370.106c4.062 0.023 7.345-3.283 7.345-7.357zM1022.702 336.142c0.384-41.557-12.592-75.915-38.567-102.137-41.579-41.963-112.247-63.232-210.096-63.232-7.007 0-13.946 0.113-21.134 0.305l-139.192 0.406c-1.952 0-3.78 0.756-5.157 2.121-1.399 1.388-2.144 3.238-2.144 5.202v541.602c0 4.017 3.283 7.3 7.3 7.3l168.145 0.023c117.776 0 238.655-16.53 242.085-139.226 1.681-60.75-37.258-93.449-70.228-110.205l-17.32-8.812 17.749-7.91c45.54-20.254 67.96-61.291 68.558-125.437zM709.871 257.396l114.628-0.023c1.873-0.090 3.633-0.192 6.228-0.192 12.288 0 42.978 2.155 62.611 22.149 12.434 12.66 18.527 30.623 18.099 53.37 0 52.039-43.351 70.589-83.914 70.589l-1.715-0.023-115.937 0.575v-146.447zM893.327 529.991c12.434 12.66 18.527 30.623 18.099 53.37 0 52.050-42.956 70.589-83.125 70.589l-0.846-0.023-117.595 0.26v-146.142l114.278-0.011c1.896-0.102 3.78-0.135 6.578 0.102 19.385 1.647 42.978 1.85 62.611 21.856z" />
<glyph unicode="&#xe92b;" glyph-name="laos-kip-currency-symbol" d="M982.199-26.166l-383.031 419.749h302.839c30.053 0 54.433 24.334 54.433 54.433 0 30.053-24.365 54.433-54.433 54.433h-288.874l336.534 420.865c5.595 7.006 6.494 16.631 2.325 24.427-3.999 7.595-11.872 12.26-20.583 12.26h-166.539c-7.145 0-14.011-3.317-18.351-8.819l-328.955-417.579v403.692c0 12.539-10.4 22.706-23.187 22.706h-134.161c-12.787 0-23.202-10.167-23.202-22.706v-434.861h-146.684c-30.068 0-54.433-24.365-54.433-54.433s24.365-54.449 54.433-54.449h146.684v-434.861c0-12.539 10.415-22.706 23.202-22.706h134.161c12.771 0 23.187 10.167 23.187 22.706v350.886l19.56 0.325 352.079-366.757c4.386-4.526 10.508-7.13 16.863-7.13h158.836c8.835 0 17.049 5.022 20.955 12.926 3.999 8.246 2.604 17.979-3.658 24.892z" />
<glyph unicode="&#xe92c;" glyph-name="latvia-lat" d="M505.935 106.736h-340.272v820.437c0 12.060-9.806 21.851-21.859 21.851h-121.94c-12.057 0-21.864-9.792-21.864-21.851v-944.586c0-12.052 9.806-21.851 21.864-21.851h484.071c12.052 0 21.864 9.799 21.864 21.851v102.312c0.002 12.027-9.811 21.836-21.864 21.836zM838.335 385.33c-88.343 33.667-103.255 52.497-103.255 81.927 0 35.245 31.648 58.921 78.708 58.921 57.814 0 100.074-22.816 115.574-32.62l14.747-9.295c3.669-2.276 8.266-2.837 12.421-1.371 4.108 1.451 7.426 4.766 8.839 8.914l38.309 111.441c2.211 6.439-0.429 13.62-6.277 17.090l-9.637 5.701c-46.044 27.251-110.092 43.518-171.356 43.518-146.279 0-248.444-88.625-248.444-215.515 0-64.029 32.488-151.945 187.24-207.14 75.027-27.714 100.368-50.67 100.368-91.013 0-41.831-35.833-66.835-95.859-66.835-51.156 0-105.984 20.894-137.647 41.596l-14.939 9.737c-3.654 2.418-8.134 3.126-12.76 1.563-4.243-1.531-7.486-4.831-8.869-9.104l-38.072-115.928c-2.124-6.499 0.499-13.438 6.379-16.886l9.547-5.629c51.231-30.145 121.838-47.427 193.709-47.427 162.163 0 266.938 86.137 266.938 219.449 0 102.519-57.256 170.018-185.665 218.905z" />
<glyph unicode="&#xe92d;" glyph-name="lithuania-litas-currency-symbol" d="M944.884 463.546c12.87 0 23.343 10.473 23.343 23.343v82.773c0 12.87-10.473 23.343-23.343 23.343h-132.338v148.382c0 6.209-2.521 12.263-6.909 16.573-5.509 5.509-13.617 6.552-16.573 6.769h-106.318c-12.73-0.14-23.094-10.613-23.094-23.343v-148.382h-69.312c-12.885 0-23.343-10.473-23.343-23.343v-82.773c0-12.87 10.458-23.343 23.343-23.343h69.312v-302.818c0-82.82 15.235-137.255 47.775-171.025 30.75-35.139 77.389-53.688 134.937-53.688 41.877 0 79.256 5.898 105.26 16.573 9.244 3.797 15.048 13.072 14.41 23.016l-4.918 81.544c-0.42 7.050-3.968 13.43-9.695 17.538-5.618 4.046-12.73 5.447-19.764 3.564-11.033-3.003-29.848-6.598-56.847-6.598-28.167 0-58.201 7.174-58.201 92.795v299.099h132.276zM577.609 91.245h-350.966v846.222c0 12.434-10.115 22.534-22.549 22.534h-125.771c-12.434 0-22.549-10.1-22.549-22.534v-974.264c0-12.449 10.115-22.549 22.549-22.549h499.286c12.434 0 22.549 10.1 22.549 22.549v105.509c0 12.434-10.115 22.534-22.549 22.534z" />
<glyph unicode="&#xe92e;" glyph-name="macedonia-denar" d="M332.411 388.538l-16.668 0.435v269.716c0 6.33-5.116 11.441-11.441 11.441h-219.931c-6.324 0-11.441-5.111-11.441-11.441v-84.675c0-45.452-0.435-87.939-12.584-126.275-6.453-20.534-15.729-40.264-27.589-58.673l-21.59-0.525c-6.29-0.168-11.267-5.373-11.166-11.664l0.079-147.164c0.117-6.233 7.827-11.227 14.058-11.227h46.382c6.201 0 13.59 4.948 13.763 11.138l0.068 92.358h199.98l0.066-92.358c0.174-6.188 7.564-11.138 13.763-11.138h40.659c6.211 0 13.909 4.973 14.058 11.183l0.743 147.175c0.068 3.037-1.077 5.965-3.179 8.176-2.106 2.189-4.997 3.44-8.031 3.517zM235.067 602.221v-212.352h-116.662c7.676 15.585 13.692 30.7 18.283 45.804 11.289 38.157 11.552 81.118 11.552 124.219v42.318l86.826 0.011zM534.769 677.517c-96.55 0-163.989-76.827-163.989-186.836 0-106.556 67.277-175.428 171.385-175.428 54.551 0 91.507 11.518 112.901 21.193 5.005 2.245 7.698 7.73 6.424 13.070l-10.078 42.341c-0.782 3.262-2.96 6.031-5.965 7.551-3.005 1.522-6.513 1.654-9.632 0.325-19.46-8.256-43.301-15.897-85.574-15.897-28.298 0-92.602 9.050-99.544 90.022h216.48c5.833 0 10.726 4.391 11.374 10.178l0.323 2.803c0.705 5.982 1.756 15.020 1.756 26.015-0.002 81.966-45.093 164.664-145.862 164.664zM530.066 612.297c20.233 0 36.454-6.071 48.231-18.075 16.186-16.485 20.755-40.196 21.963-55.139h-147.366c7.16 31.745 29.118 73.213 77.173 73.213zM1024.002 658.688v-325.28c0-6.324-5.116-11.441-11.441-11.441h-58.462c-6.324 0-11.441 5.116-11.441 11.441v135.746h-131.69v-135.735c0-6.324-5.116-11.441-11.441-11.441h-58.473c-6.324 0-11.441 5.116-11.441 11.441v325.268c0 6.33 5.116 11.441 11.441 11.441h58.475c6.324 0 11.441-5.111 11.441-11.441v-119.616h131.692v119.616c0 6.33 5.116 11.441 11.441 11.441h58.462c6.309-0.002 11.437-5.113 11.437-11.441z" />
<glyph unicode="&#xe92f;" glyph-name="malaysia-ringgit" d="M1023.63 728.596c0 9.815-8.019 17.807-17.834 17.807h-92.693c-7.416 0-14.133-4.688-16.71-11.652l-100.301-272.446c-18.177-51.501-32.255-94.215-43.427-131.775-10.774 37.903-24.277 80.589-41.549 131.775l-96.024 272.199c-2.495 7.128-9.253 11.885-16.792 11.885h-92.693c-9.787 0-17.793-7.964-17.82-17.766l-1.302-562.863c0-4.812 1.851-9.28 5.209-12.557 3.358-3.4 7.855-5.25 12.611-5.25l57.45-0.014v8.526l0.206-8.513c9.829 0 17.82 7.978 17.82 17.807 0 1.206-0.11 2.385-0.343 3.591l-0.082 361.26c9.13-29.596 19.671-62.152 32.159-99.191l91.501-268.087c2.467-7.169 9.253-12.036 16.847-12.036h55.12c7.485 0 14.215 4.729 16.724 11.734l98.931 273.008c14.407 39.41 27.265 76.175 38.903 111.144l-0.11-381.425c0-4.77 1.851-9.239 5.223-12.584 3.345-3.372 7.8-5.223 12.557-5.223h58.958c4.784 0 9.239 1.851 12.584 5.223 3.4 3.358 5.25 7.814 5.25 12.584l-0.37 562.836zM294.118 422.291c56.71 47.58 77.93 91.679 77.93 160.781 0 47.279-17.121 88.389-48.115 115.723-37.642 34.037-90.898 49.253-172.707 49.253l-143.276-0.466c-4.4-0.014-7.951-3.591-7.951-7.964v-582.178c0-4.4 3.55-7.978 7.978-7.978h74.626c4.414 0 7.951 3.578 7.951 7.978v242.604h120.562l88.814-245.318c1.138-3.153 4.126-5.278 7.485-5.278h77.231c2.632 0 5.058 1.302 6.566 3.427 1.453 2.138 1.809 4.894 0.905 7.334l-97.998 262.083zM158.985 472.613h-68.417v201.932l65.798 0.069c57.107-0.631 125.085-18.519 125.085-100.151 0-61.892-48.060-101.85-122.467-101.85z" />
<glyph unicode="&#xe930;" glyph-name="mauritius-rupee-currency-symbol" d="M627.022 594.786h102.228c19.409 0 35.139 15.771 35.139 35.167 0 19.416-15.73 35.132-35.139 35.132h-102.917c-6.616 46.441-26.876 86.592-59.093 115.001-48.26 43.654-116.523 63.171-221.389 63.171l-183.664-0.622c-5.654 0-10.199-4.6-10.199-10.185v-167.353h-116.855c-19.403 0.002-35.132-15.714-35.132-35.13 0-19.396 15.73-35.167 35.132-35.167h116.855v-508.666c0-5.641 4.545-10.226 10.226-10.226h95.66c5.668 0 10.199 4.586 10.199 10.226v310.97h154.55l113.859-314.446c1.462-4.098 5.275-6.762 9.588-6.762h98.995c3.384 0 6.494 1.636 8.428 4.382 1.881 2.732 2.313 6.275 1.165 9.4l-125.64 335.949c62.038 52.066 90.862 100.928 98.004 169.159zM268.071 749.034l84.345 0.059c61.386-0.698 132.37-17.082 153.765-84.008h-238.11v83.949zM355.784 490.144h-87.713v104.642h242.236c-12.117-64.35-70.006-104.642-154.523-104.642zM1024 214.018c0-97.94-77.475-161.278-197.408-161.278-53.697 0-106.379 12.876-144.523 35.327l-7.249 4.302c-2.137 1.231-3.085 3.746-2.313 6.114l28.959 88.187c0.515 1.529 1.732 2.76 3.245 3.327 1.515 0.515 3.247 0.297 4.586-0.595l11.403-7.442c24.833-16.245 67.789-32.595 107.908-32.595 49.286 0 78.718 21.139 78.718 56.617 0 33.705-20.236 52.505-80.139 74.647-114.656 40.917-138.761 105.351-138.761 152.287 0 93.185 75.391 158.25 183.353 158.25 45.636 0 93.301-12.064 127.495-32.299l7.316-4.336c2.149-1.286 3.098-3.849 2.286-6.215l-29.162-84.818c-0.515-1.501-1.703-2.707-3.192-3.213-1.515-0.54-3.165-0.336-4.545 0.508l-11.172 7.055c-12.199 7.757-45.553 25.693-91.013 25.693-39.265 0-65.668-20.336-65.668-50.56 0-28.215 18.462-43.405 82.292-67.711 95.141-36.233 137.585-85.969 137.585-161.253z" />
<glyph unicode="&#xe931;" glyph-name="mongolia-tughrik-currency-symbol" d="M916.534 941.202c-13.772 12.48-36.518 18.798-67.597 18.798h-675.293c-29.419 0-51.596-6.219-65.908-18.5-13.517-11.586-20.105-27.374-20.105-48.203 0-20.133 6.361-35.666 19.466-47.535 13.531-12.225 35.907-18.443 66.547-18.443h253.068v-286.519l-226.319-132.668c-21.354-12.537-28.524-40.010-16.001-61.364 8.334-14.227 23.328-22.163 38.718-22.163 7.695 0 15.504 2.002 22.632 6.162l180.97 106.103v-141.655l-226.319-132.668c-21.354-12.509-28.524-39.982-16.001-61.336 8.334-14.227 23.328-22.163 38.718-22.163 7.695 0 15.504 1.974 22.632 6.162l180.97 106.074v-147.093c0-37.639 8.093-65.525 24.052-82.832 15.717-17.052 35.751-25.344 61.237-25.344 24.975 0 44.667 8.178 60.172 25.003 15.717 17.038 23.683 45.065 23.683 83.173v246.281l227.739 133.491c21.368 12.537 28.524 39.982 16.016 61.364-12.523 21.326-39.982 28.482-61.364 15.973l-182.39-106.898v141.627l227.739 133.491c21.368 12.537 28.524 39.982 16.016 61.364-12.523 21.354-39.982 28.51-61.364 16.001l-182.39-106.912v187.373h253.068c30.739 0 53.442 6.261 67.47 18.642 13.431 11.841 19.963 27.317 19.963 47.337 0.014 20.090-6.474 35.765-19.821 47.876z" />
<glyph unicode="&#xe932;" glyph-name="mozambique-metical-currency-symbol" d="M1010.343 738.898h-410.586c-7.515 0-13.657-6.118-13.657-13.657v-60.883c0-7.527 6.13-13.657 13.657-13.657h155.013v-480.035c0-7.515 6.13-13.657 13.68-13.657h72.392c7.527 0 13.657 6.118 13.657 13.657v480.046h155.867c7.515 0 13.657 6.118 13.657 13.657v60.883c-0.023 7.515-6.153 13.645-13.68 13.645zM500.779 738.99h-88.335c-9.501 0-18.078-5.98-21.345-14.869l-95.654-259.786c-14.315-40.577-26.113-75.856-35.833-107.267-9.224 31.157-20.502 66.459-34.286 107.267l-91.532 259.475c-3.175 9.085-11.786 15.192-21.449 15.192h-88.346c-12.502 0-22.707-10.182-22.753-22.696l-1.247-536.519c0-6.13 2.378-11.844 6.626-16.058 4.283-4.329 10.020-6.707 16.139-6.707l60.537-0.012v0.704c9.859 2.505 17.166 11.429 17.166 22.049 0 1.397-0.115 2.713-0.346 4.017l-0.035 306.17c5.922-18.47 12.341-37.945 19.382-58.851l87.227-255.538c3.152-9.201 11.81-15.377 21.518-15.377h52.525c9.582 0 18.17 6.026 21.38 15.007l94.28 260.225c9.339 25.547 17.893 49.616 25.87 72.831l-0.104-328.485c0-6.084 2.367-11.786 6.649-16.069 4.283-4.306 9.997-6.672 16.092-6.672h56.219c6.095 0 11.798 2.367 16.058 6.649 4.329 4.283 6.696 9.997 6.696 16.115l-0.335 536.462c0 12.548-10.205 22.742-22.765 22.742z" />
<glyph unicode="&#xe933;" glyph-name="nepal-rupee-currency-symbol" d="M627.012 594.784h102.228c19.39 0 35.138 15.775 35.138 35.166 0 19.418-15.748 35.138-35.138 35.138h-102.907c-6.634 46.44-26.883 86.591-59.113 114.998-48.254 43.656-116.536 63.171-221.381 63.171l-183.667-0.623c-5.651 0-10.194-4.598-10.194-10.18v-167.352h-116.84c-19.418 0-35.138-15.72-35.138-35.138 0-19.39 15.72-35.166 35.138-35.166h116.84v-508.662c0-5.637 4.543-10.221 10.221-10.221h95.677c5.651 0 10.194 4.584 10.194 10.221v310.964h154.54l113.876-314.441c1.44-4.1 5.277-6.759 9.584-6.759h98.973c3.379 0 6.51 1.634 8.435 4.377 1.87 2.728 2.327 6.274 1.163 9.404l-125.649 335.95c62.049 52.063 90.885 100.926 98.018 169.152zM268.084 749.034l84.348 0.055c61.384-0.693 132.366-17.077 153.765-84.001h-238.112v83.946zM355.784 490.146h-87.699v104.638h242.24c-12.119-64.348-70.040-104.638-154.54-104.638zM1024 214.029c0-97.935-77.478-161.285-197.421-161.285-53.697 0-106.369 12.881-144.513 35.332l-7.244 4.307c-2.133 1.233-3.089 3.753-2.327 6.108l28.975 88.184c0.512 1.524 1.731 2.756 3.241 3.324 1.51 0.512 3.241 0.291 4.571-0.596l11.413-7.438c24.806-16.246 67.797-32.603 107.879-32.603 49.293 0 78.724 21.135 78.724 56.62 0 33.711-20.235 52.506-80.123 74.653-114.666 40.913-138.779 105.345-138.779 152.283 0 93.184 75.414 158.252 183.377 158.252 45.609 0 93.281-12.064 127.463-32.299l7.313-4.335c2.119-1.288 3.102-3.85 2.271-6.219l-29.141-84.819c-0.512-1.496-1.704-2.701-3.186-3.213-1.51-0.54-3.186-0.332-4.543 0.512l-11.177 7.050c-12.23 7.756-45.553 25.692-91.023 25.692-39.251 0-65.65-20.332-65.65-50.553 0-28.213 18.476-43.406 82.284-67.714 95.165-36.232 137.615-85.968 137.615-161.244z" />
<glyph unicode="&#xe934;" glyph-name="netherlands-antilles-guilder" d="M693.207 960c-7.626 0-15.653-0.422-23.871-1.258-66.565-6.77-125.942-54.264-150.469-131.935-10.123-32.056-18.421-66.175-24.75-99.741l-12.613-70.075h-119.313c-15.773 0-28.597-12.828-28.597-28.59 0-15.785 12.822-28.588 28.597-28.588l111.505-0.145-29.338-240.413c-12.628-107.536-26.168-203.345-41.412-292.859-8.984-52.9-35.213-80.632-80.053-84.483 8.292 11.551 12.865 25.921 12.865 41.221 0 36.352-26.127 65.937-58.254 65.937-32.105 0-58.254-29.582-58.241-66.39 3.278-44.254 41.065-68.415 52.559-74.767 14.138-7.777 31.339-11.917 49.728-11.917 50.496 0 99.664 28.701 125.291 73.056 39.699 68.804 57.392 140.491 72.125 208.037 19.53 89.543 32.514 182.178 45.074 271.764 5.186 36.918 10.38 73.882 16.030 110.862l116.341 0.109c15.779 0 28.59 12.803 28.59 28.588 0 15.76-12.811 28.59-28.59 28.59h-111.383c20.12 130.99 34.402 193.025 41.172 218.524 5.145 19.328 20.899 42.349 66.816 42.349 3.334 0 6.795-0.128 10.395-0.36-5.688-12.317-11.451-25.857-11.451-35.188 0-31.081 25.306-56.372 56.372-56.372 31.105 0 56.397 25.291 56.397 56.372 0.017 20.156-20.482 77.673-111.522 77.673z" />
<glyph unicode="&#xe935;" glyph-name="nicaragua-cordoba-currency-symbol" d="M539.672 124.488c1.621-5.219-0.764-10.887-5.602-13.444-14.195-7.407-68.233-31.593-166.952-31.593-219.58 0-367.118 148.342-367.118 369.135 0 216.878 136.15 357.009 346.9 357.009 88.531 0 155.050-18.109 185.088-33.622 4.666-2.412 7.078-7.684 5.839-12.771l-17.213-70.751c-0.83-3.335-3.071-6.116-6.208-7.579-3.084-1.463-6.695-1.463-9.806 0.053-34.466 16.752-87.937 27.164-139.551 27.164-156.184 0-249.393-98.126-249.393-262.534 0-168.824 95.121-269.599 254.441-269.599 67.139 0 111.134 16.989 131.366 27.111 2.992 1.503 6.458 1.608 9.556 0.277 3.071-1.318 5.417-3.914 6.392-7.078l22.261-71.779zM1012.243 388.538c-7.75 20.93-19.48 38.71-34.874 52.826-15.618 14.314-35.454 26.65-58.994 36.693-20.956 8.936-45.59 17.74-73.031 26.268v202.051c46.078-11.229 71.278-41.465 74.942-90.508h0.132l0.33-5.496c0.817-22.828 19.427-40.713 42.334-40.713 24.436 0 43.112 18.189 43.362 42.295l-0.87 7.644c-6.155 100.3-58.77 155.881-160.191 169.1v108.986c0 22.762-18.518 41.267-41.293 41.267-22.762 0-41.267-18.505-41.267-41.267v-107.866c-18.123-2.188-35.244-6.116-50.888-12.165-24.436-9.411-45.511-22.525-62.684-38.947-17.16-16.409-30.446-35.995-39.488-58.282-9.068-22.34-13.694-47.422-13.694-74.533 0-30.064 3.506-55.343 10.346-75.113 6.748-19.493 17.464-36.245 31.896-49.715 14.604-13.681 33.359-25.517 55.739-35.138 19.401-8.343 42.585-16.581 68.774-24.541v-229.65c-59.126 12.824-90.336 52.009-92.775 117.105v5.575c0 23.289-19.072 42.229-42.532 42.229-24.871 0-43.099-17.806-43.349-42.295 6.129-125.092 64.741-193.062 178.656-207.309v-108.722c0-22.762 18.505-41.267 41.267-41.267 22.775 0 41.293 18.505 41.293 41.267v108.182c19.638 2.504 38.090 6.985 54.737 13.918 26.070 10.821 48.595 25.648 66.915 44.101 18.333 18.399 32.568 40.292 42.282 65.017 9.753 24.779 14.683 51.903 14.683 80.675 0 30.775-3.954 57.136-11.757 78.329zM750.54 534.191c-20.693 7.157-35.678 14.287-45.827 21.813-10.597 7.842-17.213 16.673-19.691 26.255-2.241 8.725-3.4 20.152-3.4 33.978 0 15.869 3.216 30.051 9.569 42.189 6.34 12.139 15.17 22.235 26.268 30.011 10.86 7.644 23.632 13.457 37.919 17.266 2.451 0.659 4.943 1.173 7.42 1.727v-177.404c-4.323 1.463-8.501 2.86-12.257 4.165zM906.724 217.223c-14.801-14.169-35.441-23.302-61.366-27.467v204.594c4.165-1.463 8.396-2.939 12.126-4.27 21.128-7.644 37.761-15.539 49.504-23.461 12.284-8.33 20.719-17.978 25.095-28.746 4.191-10.373 6.326-23.184 6.326-38.051 0.013-34.73-10.65-62.5-31.685-82.6z" />
<glyph unicode="&#xe936;" glyph-name="nigeria-naira-currency-symbol" d="M985.971 394.043h-139.783v134.341h139.783c21.004 0 38.029 17.009 38.029 38.017 0 21.010-17.025 38.029-38.029 38.029h-139.783v186.406c0 27.21-5.377 47.182-15.977 59.348-10.074 11.574-23.319 16.959-41.661 16.959-17.502 0-30.248-5.348-40.127-16.85-10.476-12.178-15.793-32.187-15.793-59.47v-186.416h-262.938l-111.798 169.176c-9.568 15.098-18.565 29.241-27.301 42.816-7.866 12.226-15.538 22.18-22.784 29.612-6.415 6.58-13.726 11.673-22.277 15.587-8.068 3.683-18.325 5.532-30.46 5.532-15.478 0-29.528-4.24-42.981-12.952-13.313-8.617-22.516-19.27-28.137-32.571-4.934-12.641-7.544-32.010-7.544-57.012v-160.176h-138.394c-20.999-0.002-38.015-17.021-38.015-38.029s17.015-38.017 38.017-38.017h138.394v-134.356h-138.394c-21.002 0-38.017-17.015-38.017-38.029 0-21.002 17.015-38.004 38.017-38.004h138.394v-212.828c0-26.406 5.549-46.175 16.538-58.737 10.451-11.978 23.703-17.539 41.698-17.539 17.362 0 30.51 5.586 41.413 17.587 11.165 12.294 16.813 32.051 16.813 58.688v212.83h237.93l128.756-197.435c8.953-13.051 18.197-26.224 27.417-39.141 8.318-11.599 17.393-21.819 26.967-30.355 8.623-7.721 17.867-13.379 27.477-16.831 9.892-3.561 21.453-5.367 34.284-5.367 34.82 0 70.483 10.66 70.483 89.716v199.414h139.783c21.004 0 38.029 17.027 38.029 38.029 0.004 21.002-17.021 38.029-38.025 38.029zM732.628 528.387v-134.341h-123.89l-88.771 134.341h212.661zM292.874 682.75l51.090-78.319h-51.090v78.319zM292.874 394.043v134.341h100.699l87.625-134.341h-188.325zM732.628 206.534l-73.629 111.452h73.629v-111.452z" />
<glyph unicode="&#xe937;" glyph-name="north-korea-won" d="M1002.997 448.589h-145.548l20.768 84.025h124.78c11.614 0 21.003 9.411 21.003 21.009 0 11.592-9.411 20.999-21.003 20.999h-114.388l25.333 102.455c6.442 26.417 9.713 45.624 9.713 57.053 0 14.177-4.759 25.586-14.561 34.899-9.996 9.488-21.856 14.108-36.287 14.108-14.161 0-24.761-3.384-31.548-10.038-7.91-7.803-13.319-16.314-16.513-26.028-3.681-11.148-7.631-26.923-11.798-46.827l-28.17-125.622h-157.971l-26.983 99.616c-8.126 29.785-14.656 51.35-19.383 64.079-4.123 11.073-11.798 21.608-22.829 31.311-10.198 8.964-25.32 13.518-44.917 13.518-19.497 0-34.812-4.424-45.536-13.14-11.36-9.254-19.637-20.307-24.613-32.838-5.58-14.134-12.066-35.266-19.25-62.821l-26.757-99.714h-157.302l-28.126 125.434c-6.179 29.1-13.319 51.273-21.262 66.050-2.279 4.209-9.196 17.042-38.641 17.042-14.68 0-26.589-4.651-36.395-14.214-9.725-9.472-14.457-20.881-14.457-34.793 0-12.643 3.259-31.786 9.693-56.94l25.353-102.558h-114.396c-11.608-0.002-21.003-9.408-21.003-20.999s9.406-21.009 21.003-21.009h124.791l20.768-84.016h-145.559c-11.608 0-21.003-9.422-21.003-21.003 0-11.614 9.406-21.005 21.003-21.005h155.947l45.202-182.859c3.34-13.361 7.14-27.889 11.409-43.584 3.957-14.57 9.072-27.265 15.196-37.689 5.633-9.596 12.731-16.794 21.706-21.965 8.818-5.093 20.625-7.684 35.078-7.684 17.831 0 31.468 4.2 41.699 12.802 10.788 9.077 18.403 19.341 22.628 30.489 4.896 12.908 11.646 34.711 20.070 64.813l50.696 185.688h143.346l50.103-185.807c8.721-30.933 15.554-53.061 20.28-65.633 4.070-10.816 11.583-20.81 22.311-29.704 10.124-8.387 24.188-12.651 41.793-12.651 18.673 0 33.006 4.328 42.589 12.802 10.363 9.194 17.809 19.999 22.104 32.076 4.879 13.783 11.183 36.028 18.693 66.077l45.204 182.839h155.94c11.614 0 21.003 9.399 21.003 21.003 0.011 11.539-9.388 20.952-21.003 20.952zM775.356 532.603l-18.845-84.014h-95.553l-22.763 84.014h137.161zM512.773 670.725l25.908-96.103h-52.157l26.249 96.103zM248.655 532.603h136.584l-22.542-84.014h-95.197l-18.845 84.014zM310.846 255.389l-33.919 151.192h74.495l-40.576-151.192zM452.12 448.589l22.937 84.025h74.946l22.667-84.025h-120.55zM713.23 255.646l-40.896 150.933h74.754l-33.858-150.933z" />
<glyph unicode="&#xe938;" glyph-name="norway-krone-currency-symbol" d="M558.551-30.602c5.538-6.071 6.808-14.714 3.247-22.025-3.435-6.902-10.636-11.373-18.385-11.373h-112.758c-5.553 0-10.918 2.275-14.746 6.212l-248.796 259.133-8.314-0.141v-245.188c0-11.044-9.146-20.017-20.377-20.017h-95.22c-11.232 0-20.377 8.973-20.377 20.017v983.967c0.016 11.044 9.161 20.017 20.393 20.017h95.22c11.232 0 20.377-8.973 20.377-20.017v-564.591l226.52 287.527c3.781 4.847 9.804 7.749 16.063 7.749h118.233c7.593 0 14.542-4.141 18.071-10.793 3.718-6.918 2.902-15.405-2.071-21.632l-274.287-343.137 297.206-325.709zM990.947 672.175c-136.085 0-202.864-60.897-230.034-96.036v83.486c0 5.632-4.565 10.197-10.197 10.197h-111.958c-5.6 0-10.181-4.565-10.181-10.197l-0.11-713.413c0-2.714 1.098-5.381 2.965-7.185 1.882-1.93 4.534-3.028 7.263-3.028h128.225c5.647 0 10.244 4.581 10.244 10.212v380.3c0 21.444 2.902 41.665 5.71 58.575 17.224 94.938 78.513 152.885 163.819 155.003h44.222c2.714 0 5.381 1.098 7.2 2.981 1.961 1.93 3.028 4.502 3.028 7.247v111.629c0.063 5.647-4.534 10.228-10.197 10.228z" />
<glyph unicode="&#xe939;" glyph-name="oman-rial-currency" d="M633.704 289.323h0.035c18.815 0 37.688 0.081 56.664 0.173l7.597 0.023c21.859 0.092 43.844 0.184 66.049 0.184 5.269 0 9.696 4.116 10.065 9.384 10.768 155.051-1.372 220.546-48.098 259.56-1.81 1.487-4.093 2.317-6.445 2.317l-1.164-0.069c-2.767-0.288-5.303-1.775-6.963-4.012-26.274-35.416-25.536-67.444 2.444-103.805 10.168-13.212 14.1-32.431 18.757-55.154 1.441-7.067 2.94-14.342 4.692-21.789-16.244 0.023-32.004 0.138-47.925 0.242l-4.162 0.023c-16.728 0.092-32.949 0.219-48.848 0.219-28.338 0-51.557-0.334-73.047-1.049l-3.297-0.081c-27.957 0-40.189 10.134-42.265 34.944-2.709 32.811-5.811 71.329-8.75 108.106-3.828 47.96-7.436 93.037-9.73 118.712-3.977 44.49-28.638 116.891-31.474 125.111-1.43 4.035-5.257 6.733-9.534 6.733-4.312 0-8.151-2.744-9.523-6.825-2.202-6.479-5.303-13.373-8.312-20.060-7.298-16.233-14.826-33.007-13.177-50.15 3.609-36.881 10.295-73.877 16.878-110.261l0.231-1.234c4.104-22.723 8.37-46.254 11.748-69.38 3.378-23.242 5.903-47.764 8.116-69.415 2.801-27.404 5.695-55.73 10.33-83.872 7.056-42.968 31.139-67.028 67.812-67.778 27-0.53 56.018-0.795 91.297-0.795zM622.21 206.12l40.016-45.643c1.798-2.087 4.404-3.332 6.445-3.378l1.176-0.104c2.559 0 5.004 0.968 6.883 2.721l43.475 40.593c3.989 3.735 4.3 9.857 0.715 13.984l-42.749 49.159c-1.787 2.052-4.277 3.263-7.609 3.447-2.502 0-4.992-0.991-6.802-2.663l-43.902-40.501c-1.464-1.314-2.26-3.044-2.744-4.819l-39.728 47.061c-1.741 2.11-4.335 3.401-7.678 3.597-2.536 0-4.957-0.945-6.802-2.64l-43.567-39.636c-4.058-3.689-4.439-9.857-0.842-14.054l43.394-50.415c1.775-2.052 4.346-3.332 7.39-3.493h0.242c2.536 0 4.957 0.922 6.779 2.617l43.118 39.175c1.476 1.43 2.317 3.17 2.79 4.992zM396.095 752.078c-2.064 15.783-13.673 29.79-35.509 42.783-8.289 4.957-15.841 12.29-23.819 20.037-4.127 4.035-8.416 8.174-13.016 12.232-1.833 1.649-4.22 2.548-6.71 2.548l-1.591-0.115c-3.009-0.496-5.591-2.294-7.090-4.888-24.326-41.769-15.483-78.223-5.234-120.441l2.363-9.823c18.896-79.468 26.77-163.34 34.402-244.607l2.848-30.171c4.888-50.704-1.211-84.437-19.184-106.146-18.723-22.608-51.534-34.944-106.388-40.016-9.465-0.876-18.861-1.003-26.747-1.003l-19.668 0.104c-50.173 0.115-86.627 13.696-105.442 39.302-9.119 12.428-12.566 23.161-11.517 35.843 1.222 14.757 16.198 62.682 39.279 97.753 3.389 5.13 4.565 11.287 3.32 17.316-1.234 6.030-4.761 11.241-9.892 14.595-10.295 6.802-25.237 3.609-31.831-6.422-32.338-45.608-47.879-110.042-50.692-122.655-8.866-36.881-2.813-72.885 17.005-101.419 20.268-29.133 52.917-47.787 91.942-52.514 19.76-2.41 40.443-3.574 63.201-3.574 18.965 0 39.256 0.807 62.071 2.513 54.704 4.058 95.908 22.066 122.494 53.563 28.568 33.837 40.016 82.858 34.045 145.724-5.061 53.459-11.344 107.033-17.432 158.867l-0.357 3.067c-4.416 37.78-8.981 76.759-13.004 115.173-1.095 10.468 1.072 22.135 4.808 25.963 20.913 21.501 29.606 39.382 27.346 56.41zM989.921 420.521l-5.96 7.125c-11.575 14.907-41.4 52.94-68.412 83.768-13.108 14.93-37.895 16.59-52.883 3.493-15.541-13.604-17.086-37.33-3.493-52.871 19.806-22.596 41.942-50.208 57.298-69.703 2.801-3.101 4.946-5.949 7.044-8.785 1.902-2.559 3.781-5.061 6.018-7.678 19.599-22.758 47.43-68.447 13.788-119-61.921-93.061-133.504-140.259-212.741-140.259-0.012 0-0.012 0-0.023 0-6.226 0-12.601 0.288-18.965 0.876-15.691 1.395-31.716 4.934-47.234 8.335-3.251 0.715-6.802 1.441-10.249 2.144-4.346 0.876-8.566 1.729-11.967 2.525-8.013 1.868-13.616-4.058-15.426-8.693-1.084-5.153 2.052-10.33 7.148-11.771 17.017-4.773 34.978-11.31 50.831-17.074 35.981-13.097 73.185-26.608 109.996-26.632 2.917 0 5.822 0.115 8.762 0.254 77.105 4.635 130.529 59.581 186.49 139.983 1.349 1.418 32.961 35.509 34.010 104.001 1.095 68.516-32.661 108.371-34.033 109.962z" />
<glyph unicode="&#xe93a;" glyph-name="pakistan-rupee-currency-symbol" d="M627.012 594.784h102.228c19.404 0 35.138 15.775 35.138 35.166 0 19.418-15.734 35.138-35.138 35.138h-102.921c-6.62 46.44-26.869 86.591-59.099 114.998-48.254 43.656-116.522 63.171-221.381 63.171l-183.654-0.623c-5.651 0-10.194-4.598-10.194-10.18v-167.352h-116.854c-19.404 0-35.138-15.72-35.138-35.138 0-19.39 15.734-35.166 35.138-35.166h116.854v-508.662c0-5.637 4.543-10.221 10.221-10.221h95.663c5.665 0 10.194 4.584 10.194 10.221v310.964h154.554l113.862-314.441c1.454-4.1 5.277-6.759 9.584-6.759h98.987c3.379 0 6.496 1.634 8.421 4.377 1.884 2.728 2.313 6.274 1.163 9.404l-125.635 335.95c62.049 52.063 90.871 100.926 98.004 169.152zM268.070 749.034l84.348 0.055c61.384-0.693 132.366-17.077 153.765-84.001h-238.112v83.946zM355.784 490.146h-87.713v104.638h242.24c-12.119-64.348-70.013-104.638-154.527-104.638zM1024 214.029c0-97.935-77.478-161.285-197.407-161.285-53.697 0-106.383 12.881-144.527 35.332l-7.244 4.307c-2.133 1.233-3.089 3.753-2.313 6.108l28.961 88.184c0.512 1.524 1.731 2.756 3.241 3.324 1.51 0.512 3.241 0.291 4.584-0.596l11.399-7.438c24.833-16.246 67.797-32.603 107.907-32.603 49.293 0 78.724 21.135 78.724 56.62 0 33.711-20.235 52.506-80.137 74.653-114.652 40.913-138.765 105.345-138.765 152.283 0 93.184 75.387 158.252 183.349 158.252 45.636 0 93.295-12.064 127.491-32.299l7.313-4.335c2.147-1.288 3.102-3.85 2.285-6.219l-29.155-84.819c-0.512-1.496-1.704-2.701-3.186-3.213-1.51-0.54-3.172-0.332-4.543 0.512l-11.177 7.050c-12.202 7.756-45.553 25.692-91.010 25.692-39.265 0-65.664-20.332-65.664-50.553 0-28.213 18.462-43.406 82.284-67.714 95.137-36.232 137.588-85.968 137.588-161.244z" />
<glyph unicode="&#xe93b;" glyph-name="panama-balboa-currency-symbol" d="M898.289 784.339l-269.864-683.007c-2.133-5.521-7.427-9.135-13.336-9.135h-65.413c-4.706 0-9.11 2.322-11.782 6.172-2.672 3.891-3.248 8.834-1.566 13.249l267.916 682.996c2.108 5.527 7.429 9.191 13.349 9.191h67.398c4.706 0 9.108-2.328 11.795-6.217 2.621-3.897 3.211-8.828 1.505-13.249zM1024 178.489c0-43.935-30.66-75.816-72.893-75.816h-0.978c-40.447 0-70.934 32.594-70.934 75.816 0 43.234 31.327 75.828 72.893 75.828 41.674-0.002 71.912-31.904 71.912-75.828zM441.73 465.334l-21.102 9.458 20.606 10.426c41.954 21.304 91.516 62.942 89.36 140.32-4.343 155.69-150.358 177.161-307.514 177.161l-213.086-0.055c-5.508 0-9.993-4.479-9.993-9.968v-686.337c0-2.685 1.066-5.232 3.006-7.189 1.851-1.832 4.315-2.836 6.949-2.836l176.094-0.501c9.428-0.263 18.241-0.401 27.118-0.401 124.199 0 213.945 27.024 266.771 80.345 33.059 33.386 49.574 77.081 49.074 129.951-0.764 81.595-29.325 133.812-87.282 159.625zM363.825 551.832c-22.707-23.134-49.356-25.193-72.878-27.018l-6.034-0.471c-3.405-0.27-5.245-0.231-8.543-0.093-0.106 0.013-0.195 0.013-0.295 0.013l-143.506-0.013v183.767l149.405-0.308c48.25 0 104.608-23.278 104.608-88.969 0.512-28.478-7.142-50.988-22.756-66.907zM132.566 390.792l148.401-0.728c48.717 0 105.599-23.261 105.599-88.95 0.529-28.506-7.125-51.011-22.739-66.884-24.728-25.165-63.369-27.876-78.825-27.876-2.842 0-4.892 0.087-7.503 0.2l-144.93 0.062v184.176z" />
<glyph unicode="&#xe93c;" glyph-name="paraguay-guarani-currency-symbol" d="M1024 217.692c0-94.42-74.712-155.475-190.33-155.475-51.751 0-102.558 12.414-139.295 34.031l-7.017 4.147c-2.050 1.193-2.98 3.623-2.228 5.911l27.929 85.032c0.476 1.453 1.645 2.645 3.123 3.193 1.478 0.5 3.123 0.308 4.411-0.573l10.997-7.173c23.927-15.66 65.334-31.41 104.014-31.41 47.517 0 75.892 20.375 75.892 54.585 0 32.471-19.508 50.63-77.275 71.959-110.529 39.44-133.765 101.569-133.765 146.8 0 89.822 72.686 152.57 176.757 152.57 43.994 0 89.965-11.624 122.911-31.148l7.042-4.177c2.060-1.246 2.98-3.717 2.193-5.999l-28.098-81.766c-0.5-1.453-1.633-2.621-3.098-3.121-1.453-0.502-3.062-0.31-4.36 0.502l-10.773 6.792c-11.773 7.483-43.945 24.784-87.745 24.784-37.867 0-63.296-19.583-63.296-48.735 0-27.215 17.803-41.849 79.335-65.274 91.771-34.938 132.678-82.887 132.678-155.454zM613.873 478.676h-173.993c-6.745 0-12.202-5.457-12.202-12.202v-76.017c0-6.757 5.457-12.202 12.202-12.202h68.378v-198.158c-15.591-6.124-49.6-15.275-113.765-15.275-166.641 0-270.171 108.516-270.171 283.188 0 174.023 108.094 282.115 282.105 282.115 63.034 0 112.787-9.65 156.614-30.338 3.169-1.524 6.886-1.572 10.104-0.141 3.242 1.429 5.697 4.193 6.745 7.554l23.903 77.111c1.776 5.774-0.905 11.959-6.362 14.579-33.317 16.109-102.798 34.89-188.846 34.89-244.385 0.002-408.585-156.791-408.585-390.119 0-113.914 38.571-216.461 105.873-281.426 70.515-67.3 162.798-100.018 282.091-100.018 114.743 0 205.248 31.362 230.272 40.988 4.705 1.81 7.816 6.34 7.816 11.392v351.879c0.022 6.731-5.457 12.2-12.178 12.2z" />
<glyph unicode="&#xe93d;" glyph-name="peru-nuevo-sol-currency-symbol" d="M888.903 791.881l-290.067-697.235c-2.275-5.656-7.982-9.371-14.32-9.371h-70.312c-5.065 0-9.808 2.365-12.674 6.324-2.866 3.972-3.483 8.985-1.671 13.51l287.933 697.235c2.288 5.669 7.97 9.384 14.332 9.384h72.446c5.077 0 9.808-2.365 12.674-6.35 2.854-3.959 3.483-9.011 1.658-13.497zM946.708 250.772c-44.694 0-78.359-33.267-78.359-77.421 0-44.115 32.778-77.382 76.251-77.382h1.054c45.401 0 78.346 32.56 78.346 77.382 0 44.861-32.508 77.421-77.292 77.421zM282.804 515.722c-106.779 39.282-125.572 66.083-125.572 107.898 0 38.434 33.845 77.228 109.453 77.228 67.613 0 110.019-21.929 121.446-28.665 6.17-3.612 13.638-4.538 20.978-2.070 7.173 2.481 12.687 7.918 15.129 14.859l25.361 71.225c3.933 10.965-0.733 23.112-11.093 28.896-19.603 10.913-75.274 36.287-168.634 36.287-150.175 0-255.052-85.442-255.052-207.8 0-97.434 66.867-167.901 204.33-215.371 98.617-35.002 117.911-67.137 117.911-110.803 0-57.137-46.455-91.264-124.261-91.264-53.486 0-108.412 14.731-150.689 40.465-6.337 3.843-14.307 4.692-21.338 2.314-7.237-2.507-12.944-8.278-15.271-15.335l-24.307-73.256c-3.445-10.373 0.707-21.736 10.065-27.662 43.935-27.842 126.035-48.036 195.203-48.036 201.527 0 273.022 118.425 273.022 219.844 0.026 104.748-56.944 168.852-196.681 221.246z" />
<glyph unicode="&#xe93e;" glyph-name="philippines-peso-currency-symbol" d="M994.145 597.788h-144.955c2.506 17.788 4.077 36.34 4.077 56.057 0 14.969-1.136 29.328-2.752 43.359h143.614c16.47 0 29.823 13.361 29.823 29.823s-13.356 29.823-29.823 29.823h-156.27c-2.052 6.319-3.974 12.72-6.42 18.756-14.358 35.401-35.591 65.719-63.098 90.083-27.566 24.428-53.386 42.171-91.421 52.731-39.466 11.291-89.561 17.002-163.77 17.002h-256.716c-39.9 0-68.873-8.17-86.143-24.29-17.017-15.851-25.6-43.92-25.6-83.451v-70.832h-114.868c-16.462 0.005-29.823-13.358-29.823-29.821 0-16.465 13.361-29.823 29.823-29.823h114.868v-99.418h-114.868c-16.462 0-29.823-13.361-29.823-29.823s13.361-29.823 29.823-29.823h114.868v-471.856c0-35.561 8.002-62.445 23.794-79.947 15.583-17.327 35.758-25.761 61.694-25.761 24.543 0 44.334 8.549 60.405 26.137 16.194 17.709 24.415 44.97 24.415 80.911v294.566h198.166c118.465 0 193.519 24.989 252.495 74.31 31.774 26.606 54.655 60.748 69.201 101.623h159.313c16.458 0 29.823 13.361 29.823 29.823s-13.398 29.84-29.853 29.84zM314.985 814.964h149.67c94.424 0 155.847-15.792 187.826-48.252 2.971-3.173 5.681-6.502 8.362-9.857h-345.858v58.109zM587.36 498.779c-32.969-10.281-74.239-15.494-122.702-15.494h-149.67v54.857h339.479c-17.362-17.49-39.73-30.806-67.106-39.363zM688.655 597.788h-373.67v99.418h374.661c3.641-14.758 5.533-30.55 5.533-47.399 0-18.941-2.212-36.283-6.524-52.019z" />
<glyph unicode="&#xe93f;" glyph-name="poland-zloty-currency-symbol" d="M549.619 75.752h-353.146c24.247 28.006 46.035 55.756 64.773 80.118l295.059 383.429c2.047 2.666 3.152 5.95 3.152 9.316v74.791c0 8.443-6.835 15.278-15.28 15.278h-501.746c-8.443 0-15.266-6.835-15.266-15.278v-95.177c0-8.443 6.821-15.278 15.266-15.278h326.37c-21.975-25.464-42.526-50.325-67.889-81.468l-297.754-387.523c-2.043-2.673-3.159-5.944-3.159-9.32v-69.344c0-8.445 6.821-15.28 15.264-15.28h534.366c8.459 0 15.291 6.835 15.291 15.28v95.182c-0.013 8.443-6.848 15.275-15.302 15.275zM1015.836 663.177c-13.539 18.045-39.122 21.707-57.191 8.218l-102.084-76.46v335.771c0 8.436-6.835 15.28-15.28 15.28h-119.674c-8.432 0-15.266-6.841-15.266-15.28v-448.298l-165.936-124.27c-18.045-13.509-21.723-39.122-8.205-57.178 8.045-10.704 20.317-16.357 32.74-16.357 8.522 0 17.111 2.661 24.465 8.166l116.936 87.576v-415.034c0-8.432 6.835-15.266 15.266-15.266h119.674c8.445 0 15.28 6.835 15.28 15.266v527.527l151.070 113.154c18.058 13.523 21.741 39.133 8.205 57.185z" />
</font>
</defs>
</svg>
